<svg width="162" height="156" viewBox="0 0 162 156" fill="none" xmlns="http://www.w3.org/2000/svg">
<path d="M5.69129 116.498H2.70883C2.16275 116.498 1.72168 116.939 1.72168 117.485C1.72168 118.031 2.16275 118.472 2.70883 118.472H5.69129C6.23737 118.472 6.67844 118.031 6.67844 117.485C6.67844 116.939 6.23737 116.498 5.69129 116.498Z" fill="#97D700"/>
<path d="M20.5712 116.498H17.5887C17.0426 116.498 16.6016 116.939 16.6016 117.485C16.6016 118.031 17.0426 118.472 17.5887 118.472H20.5712C21.1173 118.472 21.5583 118.031 21.5583 117.485C21.5583 116.939 21.1173 116.498 20.5712 116.498Z" fill="#97D700"/>
<path d="M6.02474 110.403C5.64669 110.025 5.01659 110.025 4.61753 110.403C4.23947 110.781 4.23947 111.411 4.61753 111.81L6.71785 113.91C6.90688 114.099 7.15892 114.204 7.41096 114.204C7.684 114.204 7.93604 114.099 8.10406 113.91C8.48212 113.532 8.48212 112.902 8.10406 112.503L6.02474 110.403Z" fill="#97D700"/>
<path d="M16.5443 120.92C16.1662 120.542 15.5361 120.542 15.1371 120.92C14.759 121.298 14.759 121.928 15.1371 122.327L17.2374 124.428C17.4264 124.617 17.6784 124.722 17.9305 124.722C18.2035 124.722 18.4556 124.617 18.6236 124.428C19.0017 124.05 19.0017 123.42 18.6236 123.021L16.5443 120.92Z" fill="#97D700"/>
<path d="M11.661 107.504C11.1149 107.504 10.6738 107.945 10.6738 108.491V111.474C10.6738 112.02 11.1149 112.461 11.661 112.461C12.2071 112.461 12.6481 112.02 12.6481 111.474V108.491C12.6481 107.945 12.2071 107.504 11.661 107.504Z" fill="#97D700"/>
<path d="M11.661 122.385C11.1149 122.385 10.6738 122.826 10.6738 123.372V126.355C10.6738 126.901 11.1149 127.342 11.661 127.342C12.2071 127.342 12.6481 126.901 12.6481 126.355V123.372C12.6481 122.826 12.2071 122.385 11.661 122.385Z" fill="#97D700"/>
<path d="M17.2374 110.403L15.1371 112.503C14.759 112.881 14.759 113.511 15.1371 113.91C15.3261 114.099 15.5781 114.204 15.8302 114.204C16.1032 114.204 16.3552 114.099 16.5233 113.91L18.6236 111.81C19.0017 111.432 19.0017 110.802 18.6236 110.403C18.2665 110.025 17.6364 110.025 17.2374 110.403C17.2584 110.403 17.2374 110.403 17.2374 110.403Z" fill="#97D700"/>
<path d="M6.71785 120.92L4.61753 123.021C4.23947 123.399 4.23947 124.029 4.61753 124.428C4.80656 124.617 5.0586 124.722 5.31063 124.722C5.58368 124.722 5.83571 124.617 6.00374 124.428L8.10406 122.327C8.48212 121.949 8.48212 121.319 8.10406 120.92C7.74701 120.542 7.11691 120.542 6.71785 120.92Z" fill="#97D700"/>
<path d="M143.365 9.22665L141.139 8.00847C140.131 7.48339 139.29 6.64326 138.765 5.6351L137.547 3.40876C137.232 2.92569 136.602 2.79967 136.119 3.09371C135.993 3.17772 135.888 3.28274 135.804 3.40876L134.586 5.6351C134.04 6.64326 133.221 7.46238 132.212 8.00847L129.986 9.22665C129.671 9.39468 129.461 9.73073 129.461 10.0878C129.461 10.4448 129.65 10.7809 129.986 10.9489L132.212 12.1671C133.221 12.7132 134.04 13.5323 134.586 14.5405L135.804 16.7668C135.972 17.0819 136.308 17.2919 136.665 17.2919C137.022 17.2919 137.358 17.1029 137.526 16.7878L138.744 14.5615C139.29 13.5533 140.11 12.7342 141.118 12.1881L143.344 10.9699C143.659 10.8019 143.848 10.4658 143.848 10.1088C143.89 9.73073 143.68 9.39468 143.365 9.22665ZM140.194 10.4448C138.849 11.18 137.757 12.2721 137.022 13.5953L136.686 14.2254L136.35 13.5953C135.615 12.2511 134.523 11.1589 133.179 10.4448L132.548 10.1088L133.179 9.77274C134.523 9.03762 135.615 7.94546 136.35 6.60125L136.686 5.97115L137.022 6.60125C137.757 7.94546 138.849 9.03762 140.194 9.75173L140.824 10.0878L140.194 10.4448Z" fill="#97D700"/>
<path d="M150.823 57.6548H148.848C148.302 57.6548 147.861 58.0959 147.861 58.6419C147.861 59.188 148.302 59.6291 148.848 59.6291H150.823C151.369 59.6291 151.81 59.188 151.81 58.6419C151.81 58.0959 151.369 57.6548 150.823 57.6548Z" fill="#97D700"/>
<path d="M160.736 57.6553H158.762C158.215 57.6553 157.774 58.0963 157.774 58.6424C157.774 59.1885 158.215 59.6296 158.762 59.6296H160.736C161.282 59.6296 161.723 59.1885 161.723 58.6424C161.723 58.0963 161.282 57.6553 160.736 57.6553Z" fill="#97D700"/>
<path d="M154.789 51.6499C154.243 51.6499 153.802 52.091 153.802 52.637V54.6114C153.802 55.1574 154.243 55.5985 154.789 55.5985C155.335 55.5985 155.776 55.1574 155.776 54.6114V52.637C155.797 52.091 155.356 51.6499 154.789 51.6499Z" fill="#97D700"/>
<path d="M154.789 61.564C154.243 61.564 153.802 62.005 153.802 62.5511V64.5254C153.802 65.0715 154.243 65.5126 154.789 65.5126C155.335 65.5126 155.776 65.0715 155.776 64.5254V62.5511C155.797 62.005 155.335 61.564 154.789 61.564Z" fill="#97D700"/>
<path d="M21.0103 28.4302H19.036C18.4899 28.4302 18.0488 28.8712 18.0488 29.4173C18.0488 29.9634 18.4899 30.4045 19.036 30.4045H21.0103C21.5564 30.4045 21.9974 29.9634 21.9974 29.4173C21.9974 28.8712 21.5564 28.4302 21.0103 28.4302Z" fill="#97D700"/>
<path d="M30.9234 28.4302H28.9491C28.403 28.4302 27.9619 28.8712 27.9619 29.4173C27.9619 29.9634 28.403 30.4045 28.9491 30.4045H30.9234C31.4695 30.4045 31.9105 29.9634 31.9105 29.4173C31.9105 28.8712 31.4905 28.4302 30.9234 28.4302Z" fill="#97D700"/>
<path d="M24.9979 22.4048C24.4518 22.4048 24.0107 22.8459 24.0107 23.3919V25.3662C24.0107 25.9123 24.4518 26.3534 24.9979 26.3534C25.544 26.3534 25.985 25.9123 25.985 25.3662V23.3919C25.985 22.8459 25.544 22.4048 24.9979 22.4048Z" fill="#97D700"/>
<path d="M24.9979 32.3184C24.4518 32.3184 24.0107 32.7594 24.0107 33.3055V35.2798C24.0107 35.8259 24.4518 36.267 24.9979 36.267C25.544 36.267 25.985 35.8259 25.985 35.2798V33.3055C25.985 32.7804 25.544 32.3184 24.9979 32.3184Z" fill="#97D700"/>
<path d="M109.421 7.47314H65.7762C65.2301 7.47314 64.7891 7.91421 64.7891 8.4603C64.7891 9.00638 65.2301 9.44745 65.7762 9.44745H109.421C109.967 9.44745 110.408 9.00638 110.408 8.4603C110.408 7.91421 109.967 7.47314 109.421 7.47314Z" fill="#97D700"/>
<path d="M115.882 146.115H60.3289C59.7829 146.115 59.3418 146.556 59.3418 147.102C59.3418 147.648 59.7829 148.089 60.3289 148.089H115.882C116.429 148.089 116.87 147.648 116.87 147.102C116.87 146.577 116.429 146.115 115.882 146.115Z" fill="#97D700"/>
<path d="M106.955 153.061H80.1756C79.6295 153.061 79.1885 153.502 79.1885 154.048C79.1885 154.594 79.6295 155.035 80.1756 155.035H106.955C107.501 155.035 107.942 154.594 107.942 154.048C107.942 153.502 107.501 153.061 106.955 153.061Z" fill="#97D700"/>
<path d="M72.2256 153.061H54.3729C53.8268 153.061 53.3857 153.502 53.3857 154.048C53.3857 154.594 53.8268 155.035 54.3729 155.035H72.2256C72.7717 155.035 73.2128 154.594 73.2128 154.048C73.2128 153.502 72.7717 153.061 72.2256 153.061Z" fill="#97D700"/>
<path d="M89.5715 0.527344H75.6883C75.1422 0.527344 74.7012 0.96841 74.7012 1.51449C74.7012 2.06058 75.1422 2.50165 75.6883 2.50165H89.5715C90.1175 2.50165 90.5586 2.06058 90.5586 1.51449C90.5586 0.96841 90.1175 0.527344 89.5715 0.527344Z" fill="#97D700"/>
<path d="M101.48 0.527344H95.536C94.9899 0.527344 94.5488 0.96841 94.5488 1.51449C94.5488 2.06058 94.9899 2.50165 95.536 2.50165H101.48C102.026 2.50165 102.467 2.06058 102.467 1.51449C102.467 0.96841 102.026 0.527344 101.48 0.527344Z" fill="#97D700"/>
<path d="M135.661 90.6358C142.871 61.9766 125.484 32.8983 96.8244 25.6877C68.1652 18.4771 39.0869 35.8646 31.8763 64.5239C24.6657 93.1831 42.0532 122.261 70.7125 129.472C99.3717 136.683 128.45 119.295 135.661 90.6358Z" stroke="#034B25" stroke-width="3.5" stroke-miterlimit="10" stroke-linecap="round" stroke-linejoin="round"/>
<path d="M77.3792 55.9335C81.1242 49.4466 87.2054 49.4466 90.9504 55.9335C90.9504 55.9335 97.4616 67.2123 99.8852 71.4102C102.309 75.6081 108.821 86.8864 108.821 86.8864C112.566 93.3731 109.526 98.6396 102.035 98.6393C102.035 98.6393 89.0121 98.6388 84.1648 98.6388C79.3175 98.6388 66.2942 98.6393 66.2942 98.6393C58.8039 98.6396 55.7633 93.3731 59.5086 86.8864C59.5086 86.8864 66.0207 75.6081 68.4444 71.4102C70.8681 67.2123 77.3792 55.9335 77.3792 55.9335Z" fill="#DA4343"/>
<path d="M84.1651 90.4485C84.9978 90.4485 85.6876 90.1691 86.2341 89.609C86.7806 89.0496 87.0539 88.354 87.0539 87.5207C87.0539 86.688 86.7806 85.9924 86.2341 85.4323C85.6876 84.8729 84.9978 84.5928 84.1651 84.5928C83.3317 84.5928 82.6426 84.8729 82.0961 85.4323C81.5496 85.9924 81.2763 86.688 81.2763 87.5207C81.2763 88.354 81.5496 89.0496 82.0961 89.609C82.6426 90.1691 83.3317 90.4485 84.1651 90.4485ZM84.1651 82.2506C84.5555 82.2506 84.8875 82.1206 85.1607 81.8602C85.434 81.6005 85.5959 81.2227 85.6485 80.7281L87.0929 65.5815L87.132 65.1521C87.132 64.3459 86.8519 63.7016 86.2925 63.2196C85.7324 62.7382 85.0239 62.4976 84.1651 62.4976C83.3063 62.4976 82.5971 62.7382 82.0377 63.2196C81.4776 63.7016 81.1982 64.3459 81.1982 65.1521L81.2373 65.5425L82.6817 80.7281C82.7336 81.2227 82.8962 81.6005 83.1695 81.8602C83.4427 82.1206 83.7747 82.2506 84.1651 82.2506Z" fill="white"/>
</svg>
