<svg width="161" height="156" viewBox="0 0 161 156" fill="none" xmlns="http://www.w3.org/2000/svg">
<path d="M4.46961 116.716H1.48715C0.941066 116.716 0.5 117.157 0.5 117.703C0.5 118.249 0.941066 118.69 1.48715 118.69H4.46961C5.01569 118.69 5.45676 118.249 5.45676 117.703C5.45676 117.157 5.01569 116.716 4.46961 116.716Z" fill="#97D700"/>
<path d="M19.3495 116.716H16.367C15.8209 116.716 15.3799 117.157 15.3799 117.703C15.3799 118.249 15.8209 118.69 16.367 118.69H19.3495C19.8956 118.69 20.3366 118.249 20.3366 117.703C20.3366 117.157 19.8956 116.716 19.3495 116.716Z" fill="#97D700"/>
<path d="M4.80306 110.621C4.42501 110.243 3.79491 110.243 3.39585 110.621C3.01779 110.999 3.01779 111.629 3.39585 112.028L5.49617 114.128C5.6852 114.318 5.93724 114.423 6.18928 114.423C6.46232 114.423 6.71436 114.318 6.88238 114.128C7.26044 113.75 7.26044 113.12 6.88238 112.721L4.80306 110.621Z" fill="#97D700"/>
<path d="M15.3226 121.139C14.9445 120.76 14.3144 120.76 13.9154 121.139C13.5373 121.517 13.5373 122.147 13.9154 122.546L16.0157 124.646C16.2047 124.835 16.4568 124.94 16.7088 124.94C16.9819 124.94 17.2339 124.835 17.4019 124.646C17.78 124.268 17.78 123.638 17.4019 123.239L15.3226 121.139Z" fill="#97D700"/>
<path d="M10.4393 107.722C9.89322 107.722 9.45215 108.163 9.45215 108.709V111.692C9.45215 112.238 9.89322 112.679 10.4393 112.679C10.9854 112.679 11.4265 112.238 11.4265 111.692V108.709C11.4265 108.163 10.9854 107.722 10.4393 107.722Z" fill="#97D700"/>
<path d="M10.4393 122.604C9.89322 122.604 9.45215 123.045 9.45215 123.591V126.573C9.45215 127.119 9.89322 127.56 10.4393 127.56C10.9854 127.56 11.4265 127.119 11.4265 126.573V123.591C11.4265 123.045 10.9854 122.604 10.4393 122.604Z" fill="#97D700"/>
<path d="M16.0157 110.621L13.9154 112.721C13.5373 113.099 13.5373 113.729 13.9154 114.128C14.1044 114.318 14.3564 114.423 14.6085 114.423C14.8815 114.423 15.1336 114.318 15.3016 114.128L17.4019 112.028C17.78 111.65 17.78 111.02 17.4019 110.621C17.0449 110.243 16.4148 110.243 16.0157 110.621C16.0367 110.621 16.0157 110.621 16.0157 110.621Z" fill="#97D700"/>
<path d="M5.49617 121.139L3.39585 123.239C3.01779 123.617 3.01779 124.247 3.39585 124.646C3.58488 124.835 3.83692 124.94 4.08895 124.94C4.362 124.94 4.61403 124.835 4.78206 124.646L6.88238 122.546C7.26044 122.168 7.26044 121.538 6.88238 121.139C6.52533 120.76 5.89523 120.76 5.49617 121.139Z" fill="#97D700"/>
<path d="M142.143 9.44491L139.917 8.22673C138.909 7.70165 138.069 6.86152 137.544 5.85336L136.325 3.62702C136.01 3.14395 135.38 3.01793 134.897 3.31197C134.771 3.39599 134.666 3.501 134.582 3.62702L133.364 5.85336C132.818 6.86152 131.999 7.68064 130.991 8.22673L128.764 9.44491C128.449 9.61294 128.239 9.94899 128.239 10.306C128.239 10.6631 128.428 10.9992 128.764 11.1672L130.991 12.3854C131.999 12.9315 132.818 13.7506 133.364 14.7587L134.582 16.9851C134.75 17.3001 135.086 17.5102 135.443 17.5102C135.8 17.5102 136.136 17.3211 136.304 17.0061L137.523 14.7797C138.069 13.7716 138.888 12.9525 139.896 12.4064L142.122 11.1882C142.437 11.0202 142.626 10.6841 142.626 10.3271C142.668 9.94899 142.458 9.61294 142.143 9.44491ZM138.972 10.6631C137.628 11.3982 136.536 12.4904 135.8 13.8136L135.464 14.4437L135.128 13.8136C134.393 12.4694 133.301 11.3772 131.957 10.6631L131.327 10.3271L131.957 9.991C133.301 9.25589 134.393 8.16372 135.128 6.81951L135.464 6.18941L135.8 6.81951C136.536 8.16372 137.628 9.25589 138.972 9.97L139.602 10.306L138.972 10.6631Z" fill="#97D700"/>
<path d="M149.601 57.873H147.627C147.081 57.873 146.64 58.3141 146.64 58.8602C146.64 59.4063 147.081 59.8474 147.627 59.8474H149.601C150.147 59.8474 150.588 59.4063 150.588 58.8602C150.588 58.3141 150.147 57.873 149.601 57.873Z" fill="#97D700"/>
<path d="M159.514 57.8735H157.54C156.994 57.8735 156.553 58.3146 156.553 58.8607C156.553 59.4068 156.994 59.8478 157.54 59.8478H159.514C160.06 59.8478 160.501 59.4068 160.501 58.8607C160.501 58.3146 160.06 57.8735 159.514 57.8735Z" fill="#97D700"/>
<path d="M153.567 51.8682C153.021 51.8682 152.58 52.3092 152.58 52.8553V54.8296C152.58 55.3757 153.021 55.8168 153.567 55.8168C154.113 55.8168 154.554 55.3757 154.554 54.8296V52.8553C154.575 52.3092 154.134 51.8682 153.567 51.8682Z" fill="#97D700"/>
<path d="M153.567 61.7822C153.021 61.7822 152.58 62.2233 152.58 62.7694V64.7437C152.58 65.2898 153.021 65.7308 153.567 65.7308C154.113 65.7308 154.554 65.2898 154.554 64.7437V62.7694C154.575 62.2233 154.113 61.7822 153.567 61.7822Z" fill="#97D700"/>
<path d="M19.7886 28.6484H17.8143C17.2682 28.6484 16.8271 29.0895 16.8271 29.6356C16.8271 30.1817 17.2682 30.6227 17.8143 30.6227H19.7886C20.3347 30.6227 20.7758 30.1817 20.7758 29.6356C20.7758 29.0895 20.3347 28.6484 19.7886 28.6484Z" fill="#97D700"/>
<path d="M29.7017 28.6484H27.7274C27.1813 28.6484 26.7402 29.0895 26.7402 29.6356C26.7402 30.1817 27.1813 30.6227 27.7274 30.6227H29.7017C30.2478 30.6227 30.6888 30.1817 30.6888 29.6356C30.6888 29.0895 30.2688 28.6484 29.7017 28.6484Z" fill="#97D700"/>
<path d="M23.7762 22.623C23.2301 22.623 22.7891 23.0641 22.7891 23.6102V25.5845C22.7891 26.1306 23.2301 26.5717 23.7762 26.5717C24.3223 26.5717 24.7634 26.1306 24.7634 25.5845V23.6102C24.7634 23.0641 24.3223 22.623 23.7762 22.623Z" fill="#97D700"/>
<path d="M23.7762 32.5366C23.2301 32.5366 22.7891 32.9777 22.7891 33.5238V35.4981C22.7891 36.0442 23.2301 36.4852 23.7762 36.4852C24.3223 36.4852 24.7634 36.0442 24.7634 35.4981V33.5238C24.7634 32.9987 24.3223 32.5366 23.7762 32.5366Z" fill="#97D700"/>
<path d="M108.199 7.69141H64.5545C64.0084 7.69141 63.5674 8.13247 63.5674 8.67856C63.5674 9.22464 64.0084 9.66571 64.5545 9.66571H108.199C108.745 9.66571 109.186 9.22464 109.186 8.67856C109.186 8.13247 108.745 7.69141 108.199 7.69141Z" fill="#97D700"/>
<path d="M114.661 146.333H59.1073C58.5612 146.333 58.1201 146.774 58.1201 147.32C58.1201 147.866 58.5612 148.307 59.1073 148.307H114.661C115.207 148.307 115.648 147.866 115.648 147.32C115.648 146.795 115.207 146.333 114.661 146.333Z" fill="#97D700"/>
<path d="M105.733 153.279H78.954C78.4079 153.279 77.9668 153.72 77.9668 154.266C77.9668 154.813 78.4079 155.254 78.954 155.254H105.733C106.279 155.254 106.72 154.813 106.72 154.266C106.72 153.72 106.279 153.279 105.733 153.279Z" fill="#97D700"/>
<path d="M71.004 153.279H53.1512C52.6051 153.279 52.1641 153.72 52.1641 154.266C52.1641 154.813 52.6051 155.254 53.1512 155.254H71.004C71.55 155.254 71.9911 154.813 71.9911 154.266C71.9911 153.72 71.55 153.279 71.004 153.279Z" fill="#97D700"/>
<path d="M88.3498 0.745605H74.4666C73.9206 0.745605 73.4795 1.18667 73.4795 1.73276C73.4795 2.27884 73.9206 2.71991 74.4666 2.71991H88.3498C88.8959 2.71991 89.3369 2.27884 89.3369 1.73276C89.3369 1.18667 88.8959 0.745605 88.3498 0.745605Z" fill="#97D700"/>
<path d="M100.258 0.745605H94.3143C93.7682 0.745605 93.3271 1.18667 93.3271 1.73276C93.3271 2.27884 93.7682 2.71991 94.3143 2.71991H100.258C100.804 2.71991 101.245 2.27884 101.245 1.73276C101.245 1.18667 100.804 0.745605 100.258 0.745605Z" fill="#97D700"/>
<path d="M133.726 91.0372C140.937 62.3779 123.549 33.2997 94.8899 26.089C66.2306 18.8784 37.1523 36.266 29.9417 64.9252C22.7311 93.5845 40.1187 122.663 68.7779 129.873C97.4371 137.084 126.515 119.696 133.726 91.0372Z" stroke="#034B25" stroke-width="3.5" stroke-miterlimit="10" stroke-linecap="round" stroke-linejoin="round"/>
<path d="M83.6649 60.2776C85.6854 58.2571 85.6854 54.9812 83.6649 52.9607C81.6443 50.9402 78.3684 50.9402 76.3479 52.9607C74.3274 54.9812 74.3274 58.2571 76.3479 60.2776C78.3684 62.2981 81.6443 62.2981 83.6649 60.2776Z" fill="#97D700"/>
<path d="M85.7142 92.6547L94.1043 95.1018V101.499H69.1787V95.1018L77.5688 92.6547V76.6086L71.8006 74.1615V68.603H85.7142V92.6547Z" fill="#97D700"/>
</svg>
