<svg width="20" height="22" viewBox="0 0 20 22" fill="none" xmlns="http://www.w3.org/2000/svg">
<path d="M11.125 2.2793V3.01758C14.0781 3.50977 16.375 6.09375 16.375 9.16992V10.5645C16.375 12.4102 16.9902 14.2148 18.1387 15.6914L18.7539 16.4297C19 16.7578 19.041 17.168 18.877 17.4961C18.7129 17.8242 18.3848 18.0293 18.0156 18.0293H1.60938C1.19922 18.0293 0.871094 17.8242 0.707031 17.4961C0.542969 17.168 0.583984 16.7578 0.830078 16.4297L1.44531 15.6914C2.59375 14.2148 3.25 12.4102 3.25 10.5645V9.16992C3.25 6.09375 5.50586 3.50977 8.5 3.01758V2.2793C8.5 1.58203 9.07422 0.966797 9.8125 0.966797C10.5098 0.966797 11.125 1.58203 11.125 2.2793ZM9.48438 4.9043C7.10547 4.9043 5.21875 6.83203 5.21875 9.16992V10.5645C5.21875 12.5332 4.64453 14.4199 3.57812 16.0605H16.0059C14.9395 14.4199 14.4062 12.5332 14.4062 10.5645V9.16992C14.4062 6.83203 12.4785 4.9043 10.1406 4.9043H9.48438ZM12.4375 19.3418C12.4375 20.0391 12.1504 20.7363 11.6582 21.2285C11.166 21.7207 10.4688 21.9668 9.8125 21.9668C9.11523 21.9668 8.41797 21.7207 7.92578 21.2285C7.43359 20.7363 7.1875 20.0391 7.1875 19.3418H12.4375Z" fill="#034B25"/>
</svg>
