<svg width="22" height="19" viewBox="0 0 22 19" fill="none" xmlns="http://www.w3.org/2000/svg">
<path d="M10.5078 4.49805L10.0156 3.96484L9.81055 3.75977C8.74414 2.57031 7.14453 1.99609 5.58594 2.2832C3.37109 2.69336 1.8125 4.58008 1.8125 6.79492V6.95898C1.8125 8.27148 2.3457 9.54297 3.33008 10.4453L10.877 17.459C10.877 17.5 10.918 17.5 11 17.5C11.041 17.5 11.082 17.5 11.123 17.459L18.6699 10.4453C19.6133 9.54297 20.1875 8.27148 20.1875 6.95898V6.79492C20.1875 4.58008 18.5879 2.69336 16.4141 2.2832C14.8145 1.99609 13.2148 2.57031 12.1484 3.75977L11.9844 3.96484L11.4922 4.49805C11.3691 4.62109 11.1641 4.70312 11 4.70312C10.7949 4.70312 10.6309 4.62109 10.5078 4.49805ZM11.9023 2.16016C13.2559 1.13477 14.9375 0.683594 16.6191 1.01172C19.4492 1.50391 21.5 3.96484 21.5 6.79492V6.95898C21.5 8.43555 20.9258 9.83008 19.9824 10.9375C19.8594 11.1016 19.6953 11.2656 19.5312 11.3887L11.9844 18.4434C11.9434 18.4434 11.9434 18.4844 11.9023 18.5254C11.6152 18.7305 11.3281 18.8125 11 18.8125C10.5898 18.8125 10.2617 18.6895 9.97461 18.4434L2.42773 11.3887C2.26367 11.2656 2.09961 11.1016 1.97656 10.9375C1.0332 9.83008 0.5 8.43555 0.5 6.95898V6.79492C0.5 3.96484 2.50977 1.50391 5.33984 1.01172C7.02148 0.683594 8.70312 1.13477 10.0566 2.16016C10.3027 2.36523 10.5898 2.61133 10.7949 2.89844L10.959 3.0625L11.1641 2.89844C11.3281 2.69336 11.4922 2.48828 11.6973 2.32422C11.7793 2.2832 11.8613 2.20117 11.9023 2.16016Z" fill="#034B25"/>
</svg>
