<svg width="24" height="22" viewBox="0 0 24 22" fill="none" xmlns="http://www.w3.org/2000/svg">
<path d="M23.7715 10.625C23.7715 11.3633 23.1562 11.9375 22.459 11.9375H21.1465L21.1875 18.5C21.1875 18.623 21.1875 18.7461 21.1875 18.8281V19.4844C21.1875 20.4277 20.4492 21.125 19.5469 21.125H18.8906C18.8086 21.125 18.7676 21.125 18.7266 21.125C18.6855 21.125 18.6035 21.125 18.5625 21.125H17.25H16.2656C15.3223 21.125 14.625 20.4277 14.625 19.4844V18.5V15.875C14.625 15.1777 14.0098 14.5625 13.3125 14.5625H10.6875C9.94922 14.5625 9.375 15.1777 9.375 15.875V18.5V19.4844C9.375 20.4277 8.63672 21.125 7.73438 21.125H6.75H5.4375C5.35547 21.125 5.31445 21.125 5.23242 21.125C5.19141 21.125 5.15039 21.125 5.10938 21.125H4.45312C3.50977 21.125 2.8125 20.4277 2.8125 19.4844V14.8906C2.8125 14.8906 2.8125 14.8496 2.8125 14.8086V11.9375H1.5C0.761719 11.9375 0.1875 11.3633 0.1875 10.625C0.1875 10.2559 0.310547 9.92773 0.597656 9.64062L11.0977 0.453125C11.3848 0.166016 11.7129 0.125 12 0.125C12.2871 0.125 12.6152 0.207031 12.8613 0.412109L23.3203 9.64062C23.6484 9.92773 23.8125 10.2559 23.7715 10.625Z" fill="#97D700"/>
</svg>
