<svg width="22" height="22" viewBox="0 0 22 22" fill="none" xmlns="http://www.w3.org/2000/svg">
<path d="M11 0.863281C11 0.494141 11.2871 0.125 11.6973 0.125C17.1113 0.125 21.5 4.51367 21.5 9.92773C21.5 10.3379 21.1309 10.625 20.7617 10.625H11.6562C11.2871 10.625 11 10.3379 11 9.96875V1.27344V0.863281ZM12.3125 1.47852V9.3125H20.1465C19.8594 5.12891 16.4961 1.76562 12.3125 1.47852ZM8.375 11.9375V2.99609C4.60156 3.89844 1.8125 7.26172 1.8125 11.2812C1.8125 15.998 5.62695 19.8125 10.3438 19.8125C14.3633 19.8125 17.7266 17.0234 18.6289 13.25H9.6875C8.94922 13.25 8.375 12.6758 8.375 11.9375ZM9.6875 2.87305V10.625V11.9375H11H18.752C19.4902 11.9375 20.1055 12.5938 19.9414 13.332C18.998 17.8027 15.0605 21.125 10.3438 21.125C4.88867 21.125 0.5 16.7363 0.5 11.2812C0.5 6.56445 3.82227 2.62695 8.29297 1.68359C9.03125 1.51953 9.6875 2.13477 9.6875 2.87305Z" fill="#034B25"/>
</svg>
