<svg width="22" height="19" viewBox="0 0 22 19" fill="none" xmlns="http://www.w3.org/2000/svg">
<path d="M3.78125 0.4375H19.5312C19.8594 0.4375 20.1875 0.765625 20.1875 1.09375C20.1875 1.46289 19.8594 1.75 19.5312 1.75H3.78125C2.67383 1.75 1.8125 2.65234 1.8125 3.71875V15.5312C1.8125 16.6387 2.67383 17.5 3.78125 17.5H18.2188C19.2852 17.5 20.1875 16.6387 20.1875 15.5312V6.34375C20.1875 5.27734 19.2852 4.375 18.2188 4.375H5.09375C4.72461 4.375 4.4375 4.08789 4.4375 3.71875C4.4375 3.39062 4.72461 3.0625 5.09375 3.0625H18.2188C20.0234 3.0625 21.5 4.53906 21.5 6.34375V15.5312C21.5 17.377 20.0234 18.8125 18.2188 18.8125H3.78125C1.93555 18.8125 0.5 17.377 0.5 15.5312V3.71875C0.5 1.91406 1.93555 0.4375 3.78125 0.4375ZM16.25 11.9219C15.6758 11.9219 15.2656 11.5117 15.2656 10.9375C15.2656 10.4043 15.6758 9.95312 16.25 9.95312C16.7832 9.95312 17.2344 10.4043 17.2344 10.9375C17.2344 11.5117 16.7832 11.9219 16.25 11.9219Z" fill="#034B25"/>
</svg>
