<svg width="22" height="22" viewBox="0 0 22 22" fill="none" xmlns="http://www.w3.org/2000/svg">
<path d="M17.3984 17.2285C19.1211 15.5469 20.1875 13.209 20.1875 10.625C20.1875 5.58008 16.0449 1.4375 11 1.4375C5.91406 1.4375 1.8125 5.58008 1.8125 10.625C1.8125 13.209 2.87891 15.5469 4.56055 17.2285C5.13477 14.9727 7.22656 13.25 9.6875 13.25H12.3125C14.7324 13.25 16.8242 14.9727 17.3984 17.2285ZM16.209 18.1719V18.2129C16.0449 16.1621 14.3633 14.5625 12.3125 14.5625H9.6875C7.5957 14.5625 5.91406 16.1621 5.75 18.2129C7.22656 19.2383 9.03125 19.8125 11 19.8125C12.9277 19.8125 14.7324 19.2383 16.209 18.1719ZM11 21.125C7.22656 21.125 3.78125 19.1562 1.89453 15.875C0.0078125 12.6348 0.0078125 8.65625 1.89453 5.375C3.78125 2.13477 7.22656 0.125 11 0.125C14.7324 0.125 18.1777 2.13477 20.0645 5.375C21.9512 8.65625 21.9512 12.6348 20.0645 15.875C18.1777 19.1562 14.7324 21.125 11 21.125ZM11 10.625C11.6973 10.625 12.3125 10.2559 12.6816 9.64062C13.0508 9.06641 13.0508 8.28711 12.6816 7.67188C12.3125 7.09766 11.6973 6.6875 11 6.6875C10.2617 6.6875 9.64648 7.09766 9.27734 7.67188C8.9082 8.28711 8.9082 9.06641 9.27734 9.64062C9.64648 10.2559 10.2617 10.625 11 10.625ZM7.71875 8.65625C7.71875 7.50781 8.33398 6.44141 9.35938 5.82617C10.3438 5.25195 11.6152 5.25195 12.6406 5.82617C13.625 6.44141 14.2812 7.50781 14.2812 8.65625C14.2812 9.8457 13.625 10.9121 12.6406 11.5273C11.6152 12.1016 10.3438 12.1016 9.35938 11.5273C8.33398 10.9121 7.71875 9.8457 7.71875 8.65625Z" fill="#034B25"/>
</svg>
