<svg width="74" height="15" viewBox="0 0 74 15" fill="none" xmlns="http://www.w3.org/2000/svg">
<path d="M8.55391 2.21578V4.24978H3.31591V7.47178H7.32991V9.46978H3.31591V14.7798H0.795906V2.21578H8.55391ZM12.0188 3.61979C11.5748 3.61979 11.2028 3.48179 10.9028 3.20579C10.6148 2.91778 10.4708 2.56378 10.4708 2.14378C10.4708 1.72378 10.6148 1.37578 10.9028 1.09978C11.2028 0.811784 11.5748 0.667784 12.0188 0.667784C12.4628 0.667784 12.8288 0.811784 13.1168 1.09978C13.4168 1.37578 13.5668 1.72378 13.5668 2.14378C13.5668 2.56378 13.4168 2.91778 13.1168 3.20579C12.8288 3.48179 12.4628 3.61979 12.0188 3.61979ZM13.2608 4.80778V14.7798H10.7408V4.80778H13.2608ZM21.6766 4.66378C22.8646 4.66378 23.8246 5.04178 24.5566 5.79778C25.2886 6.54179 25.6546 7.58578 25.6546 8.92978V14.7798H23.1346V9.27178C23.1346 8.47978 22.9366 7.87379 22.5406 7.45379C22.1446 7.02178 21.6046 6.80578 20.9206 6.80578C20.2246 6.80578 19.6726 7.02178 19.2646 7.45379C18.8686 7.87379 18.6706 8.47978 18.6706 9.27178V14.7798H16.1506V4.80778H18.6706V6.04978C19.0066 5.61778 19.4326 5.28178 19.9486 5.04179C20.4766 4.78978 21.0526 4.66378 21.6766 4.66378ZM27.803 9.75778C27.803 8.74979 28.001 7.85578 28.397 7.07578C28.805 6.29578 29.351 5.69578 30.035 5.27579C30.731 4.85578 31.505 4.64578 32.357 4.64578C33.101 4.64578 33.749 4.79578 34.301 5.09578C34.865 5.39578 35.315 5.77378 35.651 6.22978V4.80778H38.189V14.7798H35.651V13.3218C35.327 13.7898 34.877 14.1798 34.301 14.4918C33.737 14.7918 33.083 14.9418 32.339 14.9418C31.499 14.9418 30.731 14.7258 30.035 14.2938C29.351 13.8618 28.805 13.2558 28.397 12.4758C28.001 11.6838 27.803 10.7778 27.803 9.75778ZM35.651 9.79378C35.651 9.18178 35.531 8.65978 35.291 8.22778C35.051 7.78378 34.727 7.44778 34.319 7.21978C33.911 6.97978 33.473 6.85978 33.005 6.85978C32.537 6.85978 32.105 6.97378 31.709 7.20178C31.313 7.42978 30.989 7.76578 30.737 8.20978C30.497 8.64178 30.377 9.15778 30.377 9.75778C30.377 10.3578 30.497 10.8858 30.737 11.3418C30.989 11.7858 31.313 12.1278 31.709 12.3678C32.117 12.6078 32.549 12.7278 33.005 12.7278C33.473 12.7278 33.911 12.6138 34.319 12.3858C34.727 12.1458 35.051 11.8098 35.291 11.3778C35.531 10.9338 35.651 10.4058 35.651 9.79378ZM46.5762 4.66378C47.7642 4.66378 48.7242 5.04178 49.4562 5.79778C50.1882 6.54179 50.5542 7.58578 50.5542 8.92978V14.7798H48.0342V9.27178C48.0342 8.47978 47.8362 7.87379 47.4402 7.45379C47.0442 7.02178 46.5042 6.80578 45.8202 6.80578C45.1242 6.80578 44.5722 7.02178 44.1642 7.45379C43.7682 7.87379 43.5702 8.47978 43.5702 9.27178V14.7798H41.0502V4.80778H43.5702V6.04978C43.9062 5.61778 44.3322 5.28178 44.8482 5.04179C45.3762 4.78978 45.9522 4.66378 46.5762 4.66378ZM52.7026 9.79378C52.7026 8.76179 52.9126 7.86178 53.3326 7.09378C53.7526 6.31378 54.3346 5.71378 55.0786 5.29378C55.8226 4.86178 56.6746 4.64578 57.6346 4.64578C58.8706 4.64578 59.8906 4.95778 60.6946 5.58178C61.5106 6.19378 62.0566 7.05778 62.3326 8.17378H59.6146C59.4706 7.74178 59.2246 7.40578 58.8766 7.16579C58.5406 6.91378 58.1206 6.78778 57.6166 6.78778C56.8966 6.78778 56.3266 7.05178 55.9066 7.57979C55.4866 8.09578 55.2766 8.83378 55.2766 9.79378C55.2766 10.7418 55.4866 11.4798 55.9066 12.0078C56.3266 12.5238 56.8966 12.7818 57.6166 12.7818C58.6366 12.7818 59.3026 12.3258 59.6146 11.4138H62.3326C62.0566 12.4938 61.5106 13.3518 60.6946 13.9878C59.8786 14.6238 58.8586 14.9418 57.6346 14.9418C56.6746 14.9418 55.8226 14.7318 55.0786 14.3118C54.3346 13.8798 53.7526 13.2798 53.3326 12.5118C52.9126 11.7318 52.7026 10.8258 52.7026 9.79378ZM73.8487 9.57779C73.8487 9.93779 73.8247 10.2618 73.7767 10.5498H66.4867C66.5467 11.2698 66.7987 11.8338 67.2427 12.2418C67.6867 12.6498 68.2327 12.8538 68.8807 12.8538C69.8167 12.8538 70.4827 12.4518 70.8787 11.6478H73.5967C73.3087 12.6078 72.7567 13.3998 71.9407 14.0238C71.1247 14.6358 70.1227 14.9418 68.9347 14.9418C67.9747 14.9418 67.1107 14.7318 66.3427 14.3118C65.5867 13.8798 64.9927 13.2738 64.5607 12.4938C64.1407 11.7138 63.9307 10.8138 63.9307 9.79378C63.9307 8.76179 64.1407 7.85578 64.5607 7.07578C64.9807 6.29578 65.5687 5.69578 66.3247 5.27579C67.0807 4.85578 67.9507 4.64578 68.9347 4.64578C69.8827 4.64578 70.7287 4.84978 71.4727 5.25778C72.2287 5.66578 72.8107 6.24778 73.2187 7.00378C73.6387 7.74779 73.8487 8.60579 73.8487 9.57779ZM71.2387 8.85778C71.2267 8.20978 70.9927 7.69378 70.5367 7.30978C70.0807 6.91378 69.5227 6.71578 68.8627 6.71578C68.2387 6.71578 67.7107 6.90778 67.2787 7.29179C66.8587 7.66378 66.6007 8.18578 66.5047 8.85778H71.2387Z" fill="#034B25"/>
</svg>
