<svg width="19" height="19" viewBox="0 0 19 19" fill="none" xmlns="http://www.w3.org/2000/svg">
<path d="M9.88867 18.0312C4.89648 18.0312 0.888672 14.0234 0.888672 9.03125C0.888672 4.07422 4.89648 0.03125 9.88867 0.03125C14.8457 0.03125 18.8887 4.07422 18.8887 9.03125C18.8887 14.0234 14.8457 18.0312 9.88867 18.0312ZM13.8613 7.37891H13.8262C14.1777 7.0625 14.1777 6.53516 13.8262 6.18359C13.5098 5.86719 12.9824 5.86719 12.666 6.18359L8.76367 10.1211L7.11133 8.46875C6.75977 8.11719 6.23242 8.11719 5.91602 8.46875C5.56445 8.78516 5.56445 9.3125 5.91602 9.62891L8.16602 11.8789C8.48242 12.2305 9.00977 12.2305 9.36133 11.8789L13.8613 7.37891Z" fill="#97D700"/>
</svg>
