<svg width="20" height="20" viewBox="0 0 20 20" fill="none" xmlns="http://www.w3.org/2000/svg">
<g filter="url(#filter0_i_1202_69242)">
<rect x="0.375" y="0.375" width="19.25" height="19.25" rx="4.625" stroke="#D9D9D9" stroke-width="0.75"/>
<path fill-rule="evenodd" clip-rule="evenodd" d="M15.416 6.52767C15.7419 6.12536 15.68 5.535 15.2776 5.20908C14.8753 4.88315 14.285 4.94508 13.959 5.34739L8.61433 11.9448L5.60041 8.93087C5.2343 8.56475 4.6407 8.56475 4.27459 8.93087C3.90847 9.29698 3.90847 9.89058 4.27459 10.2567L8.01536 13.9975C8.02971 14.0122 8.04462 14.0265 8.0601 14.0404C8.14089 14.1133 8.2313 14.1696 8.32696 14.2094C8.58992 14.3191 8.88887 14.3019 9.13638 14.1671C9.22737 14.1175 9.31141 14.0521 9.38415 13.9712C9.39811 13.9557 9.41146 13.9399 9.42421 13.9237L15.416 6.52767Z" fill="#97D700"/>
</g>
<defs>
<filter id="filter0_i_1202_69242" x="0" y="0" width="20" height="20" filterUnits="userSpaceOnUse" color-interpolation-filters="sRGB">
<feFlood flood-opacity="0" result="BackgroundImageFix"/>
<feBlend mode="normal" in="SourceGraphic" in2="BackgroundImageFix" result="shape"/>
<feColorMatrix in="SourceAlpha" type="matrix" values="0 0 0 0 0 0 0 0 0 0 0 0 0 0 0 0 0 0 127 0" result="hardAlpha"/>
<feOffset/>
<feGaussianBlur stdDeviation="0.84375"/>
<feComposite in2="hardAlpha" operator="arithmetic" k2="-1" k3="1"/>
<feColorMatrix type="matrix" values="0 0 0 0 0 0 0 0 0 0 0 0 0 0 0 0 0 0 0.09 0"/>
<feBlend mode="normal" in2="shape" result="effect1_innerShadow_1202_69242"/>
</filter>
</defs>
</svg>
