<svg width="24" height="19" viewBox="0 0 24 19" fill="none" xmlns="http://www.w3.org/2000/svg">
<path d="M4.15625 2.7041H6.40625V1.0166C6.40625 0.735352 6.65234 0.454102 6.96875 0.454102C7.25 0.454102 7.53125 0.735352 7.53125 1.0166V3.2666C7.53125 3.58301 7.25 3.8291 6.96875 3.8291H3.03125C2.39844 3.8291 1.90625 4.35645 1.90625 4.9541V16.2041C1.90625 16.8369 2.39844 17.3291 3.03125 17.3291H7.53125C7.8125 17.3291 8.09375 17.6104 8.09375 17.8916C8.09375 18.208 7.8125 18.4541 7.53125 18.4541H3.03125C1.76562 18.4541 0.78125 17.4697 0.78125 16.2041V4.9541C0.78125 3.72363 1.76562 2.7041 3.03125 2.7041V1.0166C3.03125 0.735352 3.27734 0.454102 3.59375 0.454102C3.875 0.454102 4.15625 0.735352 4.15625 1.0166V2.7041ZM12.0312 12.5479C12.0312 12.0908 12.3828 11.7041 12.875 11.7041H14.5625C15.0195 11.7041 15.4062 12.0908 15.4062 12.5479V14.2354C15.4062 14.7275 15.0195 15.0791 14.5625 15.0791H12.875C12.3828 15.0791 12.0312 14.7275 12.0312 14.2354V12.5479ZM14.2812 13.9541V12.8291H13.1562V13.9541H14.2812ZM14.5625 2.7041C15.0195 2.7041 15.4062 3.09082 15.4062 3.54785V5.23535C15.4062 5.72754 15.0195 6.0791 14.5625 6.0791H12.875C12.3828 6.0791 12.0312 5.72754 12.0312 5.23535V3.54785C12.0312 3.09082 12.3828 2.7041 12.875 2.7041H14.5625ZM14.2812 4.9541V3.8291H13.1562V4.9541H14.2812ZM12.0312 8.04785C12.0312 7.59082 12.3828 7.2041 12.875 7.2041H14.5625C15.0195 7.2041 15.4062 7.59082 15.4062 8.04785V9.73535C15.4062 10.2275 15.0195 10.5791 14.5625 10.5791H12.875C12.3828 10.5791 12.0312 10.2275 12.0312 9.73535V8.04785ZM14.2812 9.4541V8.3291H13.1562V9.4541H14.2812ZM18.5 16.2041C18.0078 16.2041 17.6562 15.8525 17.6562 15.3604V13.6729C17.6562 13.2158 18.0078 12.8291 18.5 12.8291H20.1875C20.6445 12.8291 21.0312 13.2158 21.0312 13.6729V15.3604C21.0312 15.8525 20.6445 16.2041 20.1875 16.2041H18.5ZM18.7812 13.9541V15.0791H19.9062V13.9541H18.7812ZM17.6562 9.17285C17.6562 8.71582 18.0078 8.3291 18.5 8.3291H20.1875C20.6445 8.3291 21.0312 8.71582 21.0312 9.17285V10.8604C21.0312 11.3525 20.6445 11.7041 20.1875 11.7041H18.5C18.0078 11.7041 17.6562 11.3525 17.6562 10.8604V9.17285ZM19.9062 10.5791V9.4541H18.7812V10.5791H19.9062ZM18.7812 2.7041V6.0791H21.0312C22.2617 6.0791 23.2812 7.09863 23.2812 8.3291V16.2041C23.2812 17.4697 22.2617 18.4541 21.0312 18.4541H10.9062C9.64062 18.4541 8.65625 17.4697 8.65625 16.2041V2.7041C8.65625 1.47363 9.64062 0.454102 10.9062 0.454102H16.5312C17.7617 0.454102 18.7812 1.47363 18.7812 2.7041ZM17.6562 7.2041V2.7041C17.6562 2.10645 17.1289 1.5791 16.5312 1.5791H10.9062C10.2734 1.5791 9.78125 2.10645 9.78125 2.7041V16.2041C9.78125 16.8369 10.2734 17.3291 10.9062 17.3291H21.0312C21.6289 17.3291 22.1562 16.8369 22.1562 16.2041V8.3291C22.1562 7.73145 21.6289 7.2041 21.0312 7.2041H17.6562ZM3.875 12.8291C3.38281 12.8291 3.03125 12.4775 3.03125 11.9854V10.2979C3.03125 9.84082 3.38281 9.4541 3.875 9.4541H5.5625C6.01953 9.4541 6.40625 9.84082 6.40625 10.2979V11.9854C6.40625 12.4775 6.01953 12.8291 5.5625 12.8291H3.875ZM4.15625 10.5791V11.7041H5.28125V10.5791H4.15625ZM3.03125 5.79785C3.03125 5.34082 3.38281 4.9541 3.875 4.9541H5.5625C6.01953 4.9541 6.40625 5.34082 6.40625 5.79785V7.48535C6.40625 7.97754 6.01953 8.3291 5.5625 8.3291H3.875C3.38281 8.3291 3.03125 7.97754 3.03125 7.48535V5.79785ZM5.28125 7.2041V6.0791H4.15625V7.2041H5.28125Z" fill="#034B25"/>
</svg>
