<svg width="19" height="19" viewBox="0 0 19 19" fill="none" xmlns="http://www.w3.org/2000/svg">
<path d="M7.04102 6.18359C7.35742 5.86719 7.88477 5.86719 8.20117 6.18359L9.85352 7.87109L11.541 6.18359C11.8574 5.86719 12.3848 5.86719 12.7012 6.18359C13.0527 6.53516 13.0527 7.0625 12.7012 7.37891L11.0488 9.03125L12.7012 10.6836C13.0527 11.0352 13.0527 11.5625 12.7012 11.8789C12.3848 12.2305 11.8574 12.2305 11.541 11.8789L9.85352 10.2266L8.20117 11.8789C7.88477 12.2305 7.35742 12.2305 7.04102 11.8789C6.68945 11.5625 6.68945 11.0352 7.04102 10.6836L8.69336 9.03125L7.04102 7.37891C6.68945 7.0625 6.68945 6.53516 7.04102 6.18359ZM18.8887 9.03125C18.8887 14.0234 14.8457 18.0312 9.88867 18.0312C4.89648 18.0312 0.888672 14.0234 0.888672 9.03125C0.888672 4.07422 4.89648 0.03125 9.88867 0.03125C14.8457 0.03125 18.8887 4.07422 18.8887 9.03125ZM9.88867 1.71875C5.8457 1.71875 2.57617 5.02344 2.57617 9.03125C2.57617 13.0742 5.8457 16.3438 9.88867 16.3438C13.8965 16.3438 17.2012 13.0742 17.2012 9.03125C17.2012 5.02344 13.8965 1.71875 9.88867 1.71875Z" fill="#818181"/>
</svg>
