<svg width="19" height="14" viewBox="0 0 19 14" fill="none" xmlns="http://www.w3.org/2000/svg">
<path d="M2.78125 1.40625C2.14844 1.40625 1.65625 1.93359 1.65625 2.53125V3.9375L8.51172 9C9.10938 9.42188 9.91797 9.42188 10.5156 9L17.4062 3.9375V2.53125C17.4062 1.93359 16.8789 1.40625 16.2812 1.40625H2.78125ZM1.65625 5.34375V11.5312C1.65625 12.1641 2.14844 12.6562 2.78125 12.6562H16.2812C16.8789 12.6562 17.4062 12.1641 17.4062 11.5312V5.34375L11.1836 9.91406C10.1992 10.6172 8.82812 10.6172 7.84375 9.91406L1.65625 5.34375ZM0.53125 2.53125C0.53125 1.30078 1.51562 0.28125 2.78125 0.28125H16.2812C17.5117 0.28125 18.5312 1.30078 18.5312 2.53125V11.5312C18.5312 12.7969 17.5117 13.7812 16.2812 13.7812H2.78125C1.51562 13.7812 0.53125 12.7969 0.53125 11.5312V2.53125Z" fill="#034B25"/>
</svg>
