<svg width="14" height="15" viewBox="0 0 14 15" fill="none" xmlns="http://www.w3.org/2000/svg">
<path d="M7 14.5312C3.11719 14.5312 0 11.4141 0 7.53125C0 3.67578 3.11719 0.53125 7 0.53125C10.8555 0.53125 14 3.67578 14 7.53125C14 11.4141 10.8555 14.5312 7 14.5312ZM5.90625 9.71875C5.52344 9.71875 5.25 10.0195 5.25 10.375C5.25 10.7578 5.52344 11.0312 5.90625 11.0312H8.09375C8.44922 11.0312 8.75 10.7578 8.75 10.375C8.75 10.0195 8.44922 9.71875 8.09375 9.71875H7.875V7.3125C7.875 6.95703 7.57422 6.65625 7.21875 6.65625H5.90625C5.52344 6.65625 5.25 6.95703 5.25 7.3125C5.25 7.69531 5.52344 7.96875 5.90625 7.96875H6.5625V9.71875H5.90625ZM7 5.78125C7.46484 5.78125 7.875 5.39844 7.875 4.90625C7.875 4.44141 7.46484 4.03125 7 4.03125C6.50781 4.03125 6.125 4.44141 6.125 4.90625C6.125 5.39844 6.50781 5.78125 7 5.78125Z" fill="#DA4343"/>
</svg>
