<svg width="14" height="12" viewBox="0 0 14 12" fill="none" xmlns="http://www.w3.org/2000/svg">
<path d="M0.5 1.50391C0.5 0.919922 0.957031 0.4375 1.54102 0.4375H12.4336C13.0176 0.4375 13.5 0.919922 13.5 1.50391C13.5 1.75781 13.3984 1.98633 13.2461 2.16406L9.03125 7.36914V11C9.03125 11.457 8.65039 11.8125 8.19336 11.8125C8.01562 11.8125 7.83789 11.7617 7.68555 11.6348L5.34961 9.78125C5.0957 9.57812 4.96875 9.29883 4.96875 8.99414V7.36914L0.728516 2.16406C0.576172 1.98633 0.5 1.75781 0.5 1.50391ZM1.89648 1.65625L6.03516 6.75977C6.13672 6.88672 6.1875 7.01367 6.1875 7.14062V8.89258L7.8125 10.1875V7.14062C7.8125 7.01367 7.83789 6.88672 7.93945 6.75977L12.1035 1.65625H1.89648Z" fill="white"/>
</svg>
