<svg width="102" height="24" viewBox="0 0 102 24" fill="none" xmlns="http://www.w3.org/2000/svg">
<path d="M5.02062 2.65008C5.79692 1.56804 6.67014 0.923621 7.69123 0.67884C8.02993 0.597912 8.35763 0.55595 8.66536 0.55595C9.9522 0.55595 10.8914 1.24333 11.3809 2.54417C11.4639 2.76597 11.5258 2.95081 11.5728 3.12565C11.6467 3.39741 11.7176 3.67316 11.7866 3.93992C11.9144 4.43448 12.0463 4.94502 12.1952 5.43758C12.381 6.05003 12.8126 6.44868 13.512 6.65549C13.7318 6.72043 13.9496 6.7534 14.1574 6.7534C14.9997 6.7534 15.6451 6.21289 15.8409 5.34366C15.9568 4.83012 15.9079 4.30459 15.6921 3.7381C15.2634 2.61011 14.4312 1.80583 13.1503 1.27631C11.8855 0.753773 10.5197 0.5 8.97608 0.5C8.54846 0.5 8.10086 0.519982 7.64427 0.559946C3.44803 0.928616 0.164966 4.38352 0.00710703 8.59675C-0.0908053 11.2134 0.823376 13.4434 2.72467 15.2258C4.2583 16.6635 6.35642 17.4878 8.48052 17.4878C10.6046 17.4878 12.7427 16.6196 14.2693 15.044C14.5191 14.7862 14.7479 14.5035 14.9897 14.2037C14.9987 14.1927 15.0077 14.1808 15.0177 14.1698C14.9597 14.1448 14.9018 14.1198 14.8448 14.0938C14.2514 14.8362 13.573 15.4326 12.8286 15.8662C11.8435 16.4407 10.8514 16.7325 9.88027 16.7325C8.80623 16.7325 7.74518 16.3778 6.72809 15.6784C5.14151 14.5874 4.07047 13.0168 3.54494 11.0106C3.10633 9.33609 3.29616 7.69556 3.51097 6.45367C3.77074 4.94902 4.26529 3.70513 5.02162 2.65107L5.02062 2.65008Z" fill="#034B25"/>
<path d="M62.1291 7.37294C60.9592 6.44277 59.6233 5.97119 58.1597 5.97119C57.6931 5.97119 57.2105 6.02015 56.7239 6.11606C54.6958 6.5177 53.0892 7.92744 52.4278 9.88669C51.7564 11.8749 52.188 14.003 53.5818 15.5806C54.6528 16.7925 56.1994 17.4879 57.826 17.4879C59.1138 17.4879 60.3597 17.0423 61.3358 16.235C61.6435 15.9802 61.9093 15.7085 62.1391 15.4137C62.0811 15.3988 62.0232 15.3828 61.9663 15.3658C61.9003 15.4277 61.8354 15.4907 61.7674 15.5566C61.5157 15.7994 61.2559 16.0512 60.9432 16.247C60.3527 16.6167 59.6353 16.8205 58.925 16.8205C57.6981 16.8205 56.648 16.228 55.9706 15.151C55.527 14.4466 55.2283 13.6863 55.0844 12.891C54.8886 11.812 54.9246 10.677 55.2023 9.21329C55.3751 8.29811 55.6559 7.60273 56.0845 7.02525C56.4342 6.55367 56.8438 6.26293 57.3374 6.13604C57.5262 6.08709 57.721 6.06311 57.9169 6.06311C58.7661 6.06311 59.5724 6.53069 60.023 7.28302C60.4356 7.9744 60.5805 8.76569 60.4666 9.70285C60.3597 10.5731 59.8352 11.1556 58.9899 11.3434C58.6552 11.4183 58.3165 11.4373 57.9858 11.4493C57.9169 11.3803 57.8579 11.3004 57.809 11.2065C57.802 11.1935 57.795 11.1795 57.789 11.1665C57.6671 10.9048 57.6891 10.627 57.7081 10.3822L57.7101 10.3513C57.728 10.1185 57.731 9.8727 57.6321 9.65889C57.6151 9.62192 57.5952 9.58596 57.5722 9.55299C57.3534 9.22728 57.0107 9.11638 56.632 9.24726C56.2184 9.39113 55.9596 9.73282 55.9736 10.1185C55.9846 10.4302 56.1015 10.708 56.3143 10.9318C56.7179 11.3554 57.2774 11.5912 58.0228 11.6501C58.6552 11.778 59.2517 11.8419 59.8292 11.8419C60.0859 11.8419 60.3427 11.8289 60.5935 11.804C61.3698 11.726 61.9553 11.5392 62.4338 11.2185C62.8575 10.9337 63.0942 10.601 63.1572 10.2004C63.343 9.01447 62.9983 8.06332 62.1331 7.37493L62.1291 7.37294Z" fill="#034B25"/>
<path d="M46.596 6.00687C46.3593 5.9769 46.1255 5.96191 45.9007 5.96191C44.8876 5.96191 44.0044 6.25565 43.2001 6.86111C43.1311 6.91306 43.0642 6.93305 43.0232 6.94503C43.0183 6.94703 43.0123 6.94803 43.0053 6.95103C42.8874 6.99299 42.7565 6.97601 42.6546 6.90407C42.5527 6.83214 42.4917 6.71524 42.4917 6.59035V6.47745C42.4917 6.40152 42.4917 6.33258 42.4917 6.26364C42.4917 6.10978 42.4797 6.03185 42.4707 5.99389C42.4608 5.99389 42.4488 5.99289 42.4348 5.99289C42.3778 5.99289 42.2999 6.00088 42.203 6.01587L42.192 6.01786C41.2279 6.22368 40.2178 6.34657 39.1797 6.38454H39.2336C39.4455 6.38454 39.6173 6.55638 39.6173 6.76819V10.2491C39.6173 14.4943 39.6173 18.7395 39.6173 22.9847C39.6173 23.0976 39.6313 23.1565 39.6403 23.1835C39.6692 23.1855 39.7312 23.1835 39.8431 23.1515L40.1428 23.0686C40.9481 22.8468 41.7534 22.624 42.5587 22.4012C42.6816 22.3672 42.7085 22.3413 42.7095 22.3403C42.7095 22.3403 42.7275 22.3043 42.7275 22.1684C42.7275 21.0144 42.7275 19.8595 42.7275 18.7055V17.1779C42.7275 17.051 42.7895 16.9331 42.8944 16.8612C42.9983 16.7892 43.1321 16.7742 43.25 16.8202L43.338 16.8542C43.3929 16.8751 43.4379 16.8921 43.4828 16.9101C44.1452 17.1769 44.7537 17.3108 45.3422 17.3207C47.3204 17.3517 48.9429 16.5544 50.1678 14.9529C51.5876 13.0945 51.7714 10.5458 50.6244 8.61054C49.7342 7.10889 48.3805 6.23367 46.598 6.00787L46.596 6.00687ZM47.814 14.8889C47.5112 15.6153 47.1096 16.1668 46.5851 16.5754C46.1095 16.9461 45.48 17.1509 44.8126 17.1509C44.1283 17.1509 43.4898 16.9371 43.0133 16.5484C42.8214 16.3916 42.7335 16.1268 42.7325 15.935C42.7245 14.9249 42.7255 13.8978 42.7265 12.9047V12.1064C42.7265 11.7677 42.7265 11.43 42.7275 11.0913C42.7285 10.2101 42.7295 9.29793 42.7225 8.40273C42.7195 7.97311 42.8554 7.59245 43.1292 7.27274C43.7326 6.56737 44.5559 6.16273 45.3891 6.16273C46.3183 6.16273 47.1655 6.66429 47.714 7.5385C48.1636 8.25486 48.4164 9.1071 48.4864 10.1442C48.6092 11.9536 48.3894 13.5062 47.813 14.8889H47.814Z" fill="#034B25"/>
<path d="M36.9285 5.96196C36.4559 5.96196 35.9903 6.09884 35.4169 6.40656C34.7395 6.76924 34.121 7.28078 33.4716 8.01612C33.3477 8.15699 33.2248 8.30486 33.0949 8.46072C33.031 8.53765 32.965 8.61758 32.8951 8.70051C32.7912 8.8244 32.6214 8.86936 32.4705 8.81441C32.3186 8.75945 32.2187 8.61558 32.2187 8.45373C32.2187 8.41676 32.2187 8.38579 32.2187 8.35682C32.2187 8.29487 32.2167 8.24192 32.2207 8.18297C32.2347 7.97316 32.2517 7.76235 32.2677 7.55253C32.3016 7.10993 32.3376 6.65134 32.3536 6.20474C32.3586 6.08185 32.3406 6.0249 32.3326 6.00592C32.3246 6.00392 32.3106 6.00192 32.2897 6.00192C32.2597 6.00192 32.2087 6.00592 32.1308 6.0249C31.1017 6.27468 29.9897 6.42854 28.7578 6.48949C28.9327 6.52446 29.0645 6.67932 29.0645 6.86515V16.9811C29.0645 17.121 28.9896 17.2439 28.8767 17.3108H32.4305C32.3406 17.2658 32.2687 17.1869 32.2357 17.087C32.2327 17.078 32.2297 17.071 32.2277 17.065C32.2157 17.034 32.1947 16.9771 32.1947 16.8992V16.6784C32.1927 14.3355 32.1907 11.9126 32.1947 9.52976C32.1947 9.33594 32.3036 9.12713 32.4595 9.02022C32.5424 8.96327 32.6253 8.90532 32.7073 8.84738C32.989 8.64955 33.2808 8.44474 33.6045 8.28388C33.9112 8.13102 34.2299 8.05409 34.5536 8.05409C34.9363 8.05409 35.3189 8.16099 35.6916 8.3728C35.8125 8.44074 35.9294 8.51268 36.0433 8.58261C36.1422 8.64356 36.2361 8.70051 36.331 8.75546C36.5998 8.91032 36.8676 8.95628 37.1683 8.89833C37.8926 8.75945 38.4042 8.05409 38.3332 7.29177C38.2613 6.52146 37.6708 5.96096 36.9275 5.95996L36.9285 5.96196Z" fill="#034B25"/>
<path d="M20.7625 11.645C20.9334 11.8778 20.9803 12.1445 21.0213 12.3803L21.0263 12.4103C21.0653 12.6341 21.1212 12.8679 21.2601 13.0577C21.2841 13.0907 21.31 13.1217 21.339 13.1506C21.6108 13.4314 21.9425 13.4933 22.2492 13.3195C22.5839 13.1297 22.7328 12.771 22.6289 12.4063C22.5449 12.1116 22.3751 11.8628 22.1323 11.678C21.6427 11.3053 21.0473 11.1574 20.3099 11.2264C20.261 11.2304 20.213 11.2364 20.1641 11.2424C20.3859 11.2893 20.5777 11.4132 20.7356 11.611C20.7445 11.623 20.7535 11.634 20.7625 11.646V11.645Z" fill="#034B25"/>
<path d="M27.349 16.4815C27.247 16.2168 27.1371 15.901 27.1002 15.5653C27.0422 15.0388 27.0222 14.5173 27.0063 13.9848C26.9933 13.5731 26.9883 13.1555 26.9833 12.7519C26.9743 12.0075 26.9643 11.2382 26.9074 10.4899C26.7535 8.44571 25.044 6.95405 23.5144 6.58737C22.6771 6.38655 21.8209 6.28564 20.9677 6.28564C20.1144 6.28564 19.2742 6.38356 18.4199 6.57638C17.6017 6.76122 16.9872 7.02898 16.4857 7.41863C16.136 7.69039 15.9721 8.13299 16.0481 8.60257C16.124 9.07315 16.4207 9.45381 16.8224 9.59668C17.1121 9.69959 17.4668 9.75054 17.8035 9.73855C18.6138 9.71058 19.0614 9.29495 19.1733 8.46569C19.1783 8.42973 19.1823 8.39276 19.1873 8.35679C19.2072 8.19294 19.2302 8.0061 19.2892 7.82427C19.5439 7.03497 20.1564 6.5554 21.1095 6.39954C21.2874 6.37057 21.4582 6.35558 21.6181 6.35558C22.5762 6.35558 23.2436 6.86213 23.6003 7.86223C23.6603 8.03108 23.7102 8.19893 23.7462 8.36079C23.938 9.22002 23.93 10.0832 23.922 10.9175C23.92 11.0873 23.919 11.2582 23.919 11.428C23.919 12.2963 23.941 13.1815 23.962 14.0377C23.973 14.5013 23.985 14.9809 23.993 15.4534C23.994 15.5294 23.985 15.7911 23.8091 15.969C23.0288 16.7603 22.1816 17.1609 21.2924 17.1609C20.8708 17.1609 20.4421 17.069 20.0155 16.8872C18.9635 16.4386 18.38 15.5773 18.317 14.3904C18.313 14.3274 18.311 14.2645 18.311 14.2026C18.311 14.1966 18.311 14.1916 18.311 14.1856C18.311 14.1816 18.311 14.1786 18.311 14.1756C18.311 13.9058 18.345 13.653 18.413 13.4183C18.7217 12.2343 19.6379 11.454 19.8157 11.3111C19.6528 11.3271 19.482 11.3471 19.3022 11.3701C18.4299 11.481 17.7515 11.6838 17.1691 12.0075C16.1989 12.546 15.7324 13.3863 15.7423 14.5762C15.7513 15.5394 16.2199 16.2337 17.218 16.7623C17.3129 16.8122 17.4178 16.8622 17.5357 16.9131C18.382 17.2778 19.2962 17.3957 19.9985 17.4576C20.2253 17.4776 20.4501 17.4876 20.6679 17.4876C21.9418 17.4876 23.0508 17.1549 24.0579 16.4705C24.1149 16.4316 24.1708 16.3996 24.2248 16.3696C24.2457 16.3576 24.2677 16.3456 24.2897 16.3327C24.4486 16.2387 24.6524 16.2717 24.7733 16.4106C25.2668 16.9761 25.8353 17.2708 26.5117 17.3118C26.7445 17.3258 26.9973 17.3328 27.309 17.3328C27.4978 17.3328 27.6916 17.3308 27.8785 17.3278C27.9594 17.3278 28.0413 17.3258 28.1233 17.3248V17.3008C27.8335 17.1919 27.5338 16.9591 27.349 16.4825V16.4815Z" fill="#034B25"/>
<path d="M69.6794 17.213C69.6764 17.1841 69.6734 17.1591 69.6704 17.1381C69.6644 17.0881 69.6574 17.0422 69.6574 16.9872C69.6574 14.5534 69.6554 12.0357 69.6594 9.52391C69.6594 9.35906 69.7044 9.19521 69.7823 9.06832C70.113 8.59774 72.2481 5.54547 72.5089 5.1778C72.6967 4.91304 72.8975 4.65327 73.0913 4.4025C73.442 3.9489 73.7727 3.52029 74.0455 3.05271C74.3382 2.55016 74.3762 1.99965 74.1514 1.54106C73.9176 1.06549 73.437 0.74777 72.8326 0.669839C72.7416 0.65785 72.6527 0.651855 72.5668 0.651855C72.0643 0.651855 71.6586 0.857671 71.3619 1.26331C71.0092 1.74588 70.9742 2.24543 71.255 2.79294C71.3669 3.01074 71.5038 3.21956 71.6486 3.44036L71.7076 3.53028C72.364 4.53238 70.4587 8.05323 69.7823 9.06832C69.7144 9.11728 69.6304 9.14425 69.5445 9.14126C69.4126 9.13626 69.2927 9.06532 69.2268 8.95143C69.2038 8.91146 69.1818 8.87449 69.1619 8.84053C69.1199 8.76959 69.0839 8.70864 69.049 8.6457L68.2567 7.23896C67.1437 5.26173 65.9927 3.21756 64.8687 1.20236C64.8477 1.1634 64.8337 1.14841 64.8287 1.14342C64.8217 1.14142 64.8018 1.13742 64.7548 1.13742H64.7498C63.9235 1.14242 63.1103 1.14342 62.4239 1.14342H61.4258C61.7335 1.21435 61.8944 1.43815 61.9933 1.61399C62.7476 2.96179 63.5189 4.33056 64.2632 5.65438C64.9566 6.88527 65.673 8.15814 66.3753 9.41201C66.4882 9.61283 66.5532 9.86061 66.5542 10.0914C66.5612 11.8928 66.5602 13.7232 66.5602 15.4946V17.1721C66.5602 17.3039 66.4932 17.4198 66.3923 17.4888H69.8442C69.7553 17.4268 69.6934 17.3289 69.6814 17.215L69.6794 17.213Z" fill="url(#paint0_linear_1933_12066)"/>
<path d="M98.6722 17.4877H101.999C101.851 17.4348 101.745 17.2929 101.745 17.127V16.7114C101.745 16.4227 101.745 16.1429 101.745 15.8622C101.745 15.2977 101.746 14.7242 101.748 14.1697C101.752 12.8449 101.756 11.4741 101.728 10.1293C101.706 9.08125 101.282 8.21203 100.465 7.54862C99.8082 7.0151 98.9989 6.71037 97.9878 6.61745C97.8099 6.60147 97.6341 6.59247 97.4662 6.59247C96.3313 6.59247 95.4161 6.96214 94.6698 7.72246C94.6218 7.77142 94.5718 7.81338 94.5249 7.85335C94.5049 7.87033 94.4829 7.88931 94.4599 7.9093C94.375 7.98323 94.2621 8.0172 94.1502 8.00021C94.0383 7.98323 93.9404 7.91829 93.8805 7.82237C93.5857 7.3468 93.1771 7.02409 92.6306 6.83426C92.162 6.6724 91.6395 6.59647 90.9871 6.59647C90.9121 6.59647 90.8372 6.59647 90.7623 6.59947C90.0729 6.61545 89.4674 6.76832 88.9319 7.05906C88.2205 7.3518 87.682 7.89531 87.3683 8.27597C87.3323 8.29695 87.2994 8.28896 87.2134 8.25199C87.0646 8.18705 86.9726 8.03718 86.9836 7.87533C86.9866 7.83137 86.9896 7.7924 86.9916 7.75743C86.9956 7.69749 86.9996 7.64953 87.0016 7.60257C87.0056 7.48867 87.0126 7.37477 87.0186 7.26188C87.0326 7.00111 87.0466 6.75433 87.0366 6.51155C87.0286 6.30273 87.0056 6.30273 86.8587 6.30273C86.8348 6.30273 86.8088 6.30373 86.7808 6.30573C86.7628 6.30673 86.7438 6.30873 86.7259 6.30973C86.6839 6.31273 86.6439 6.31472 86.619 6.32072C85.6808 6.52553 84.7007 6.64543 83.6406 6.68439C83.8305 6.70737 83.9773 6.86923 83.9773 7.06505V17.146C83.9773 17.2809 83.9074 17.3998 83.8025 17.4677H87.3193C87.2104 17.4068 87.1345 17.2929 87.1255 17.161C87.1235 17.132 87.1215 17.1051 87.1195 17.0801C87.1145 17.0201 87.1095 16.9642 87.1095 16.9012C87.1095 14.3655 87.1095 11.8298 87.1095 9.29406C87.1095 9.28606 87.1095 9.27707 87.1095 9.26808C87.1075 9.18715 87.1125 8.96935 87.1535 8.82348C87.2204 8.58269 87.2824 8.49677 87.3953 8.29995C87.5271 8.14409 87.73 7.93627 88.0427 7.66252C88.5472 7.21991 89.0218 7.04607 89.3665 6.98213C89.4125 6.97813 89.4594 6.97513 89.5054 6.97513C90.0539 6.97513 90.5385 7.26188 90.8362 7.76143C90.9491 7.95126 91.1049 8.241 91.1539 8.55672C91.2478 9.16018 91.3257 9.70569 91.3297 10.2712C91.3427 12.0506 91.3407 13.86 91.3387 15.6084C91.3387 16.2278 91.3377 16.8463 91.3377 17.4657H94.6488C94.5299 17.4008 94.4499 17.2739 94.4499 17.129V16.7933C94.4499 16.1409 94.45 15.4885 94.4509 14.8361C94.4529 12.8199 94.4539 10.7358 94.44 8.6866C94.436 8.18105 94.6078 7.81138 94.9795 7.52164C95.0035 7.50266 95.0274 7.48268 95.0514 7.46369C95.0944 7.42773 95.1433 7.38676 95.1973 7.3478C95.6059 7.05606 96.0665 6.9012 96.5301 6.9012C97.5102 6.9012 98.3215 7.58259 98.5493 8.59668C98.6542 9.06126 98.6682 9.53184 98.6702 9.88952C98.6762 11.7618 98.6752 13.6661 98.6732 15.5065C98.6732 16.1679 98.6722 16.8283 98.6722 17.4897V17.4877Z" fill="url(#paint1_linear_1933_12066)"/>
<path d="M80.886 7.67533C79.806 6.5873 78.3672 5.98784 76.8366 5.98584H76.8306C76.8216 5.98584 76.8126 5.98584 76.8046 5.98584C76.7956 5.98584 76.7867 5.98584 76.7787 5.98584H76.7727C75.242 5.98684 73.8033 6.5873 72.7233 7.67533C71.6423 8.76335 71.0478 10.2101 71.0508 11.7487C71.0558 14.9039 73.6285 17.4706 76.7857 17.4706H76.7897C76.7897 17.4706 76.7996 17.4706 76.8046 17.4706C76.8096 17.4706 76.8146 17.4706 76.8196 17.4706H76.8236C79.9818 17.4706 82.5545 14.9039 82.5585 11.7487C82.5605 10.2101 81.967 8.76335 80.886 7.67533ZM79.4063 14.5682C79.1995 15.5173 78.8558 16.2097 78.3243 16.7452C77.9097 17.1638 77.3761 17.3936 76.8226 17.3936C76.8166 17.3936 76.8106 17.3936 76.8056 17.3936C76.8006 17.3936 76.7937 17.3936 76.7887 17.3936C76.2352 17.3936 75.7016 17.1628 75.287 16.7452C74.7555 16.2097 74.4118 15.5173 74.205 14.5682C73.7164 12.3262 73.7724 10.286 74.3738 8.33074C74.5257 7.83618 74.7904 7.33164 75.1191 6.90901C75.5488 6.35651 76.1392 6.05178 76.7817 6.05178C76.7897 6.05178 76.7986 6.05178 76.8066 6.05178C76.8146 6.05178 76.8236 6.05178 76.8316 6.05178C77.474 6.05178 78.0645 6.35651 78.4941 6.90901C78.8228 7.33164 79.0876 7.83718 79.2395 8.33074C79.8409 10.286 79.8969 12.3262 79.4083 14.5682H79.4063Z" fill="url(#paint2_linear_1933_12066)"/>
<defs>
<linearGradient id="paint0_linear_1933_12066" x1="67.861" y1="2.57314" x2="67.861" y2="15.6155" gradientUnits="userSpaceOnUse">
<stop stop-color="#CCDB2A"/>
<stop offset="1" stop-color="#99CA3C"/>
</linearGradient>
<linearGradient id="paint1_linear_1933_12066" x1="92.8204" y1="2.57307" x2="92.8204" y2="15.6154" gradientUnits="userSpaceOnUse">
<stop stop-color="#CCDB2A"/>
<stop offset="1" stop-color="#99CA3C"/>
</linearGradient>
<linearGradient id="paint2_linear_1933_12066" x1="76.8046" y1="2.55691" x2="76.8046" y2="15.5992" gradientUnits="userSpaceOnUse">
<stop stop-color="#CCDB2A"/>
<stop offset="1" stop-color="#99CA3C"/>
</linearGradient>
</defs>
</svg>
