<svg width="160" height="157" viewBox="0 0 160 157" fill="none" xmlns="http://www.w3.org/2000/svg">
<path d="M3.96961 117.314H0.98715C0.441066 117.314 0 117.758 0 118.306C0 118.855 0.441066 119.298 0.98715 119.298H3.96961C4.51569 119.298 4.95676 118.855 4.95676 118.306C4.95676 117.758 4.51569 117.314 3.96961 117.314Z" fill="#97D700"/>
<path d="M18.8485 117.314H15.8661C15.32 117.314 14.8789 117.758 14.8789 118.306C14.8789 118.855 15.32 119.298 15.8661 119.298H18.8485C19.3946 119.298 19.8357 118.855 19.8357 118.306C19.8357 117.758 19.3946 117.314 18.8485 117.314Z" fill="#97D700"/>
<path d="M4.30404 111.189C3.92598 110.809 3.29589 110.809 2.89682 111.189C2.51877 111.569 2.51877 112.202 2.89682 112.603L4.99715 114.714C5.18618 114.904 5.43822 115.009 5.69025 115.009C5.9633 115.009 6.21533 114.904 6.38336 114.714C6.76142 114.334 6.76142 113.701 6.38336 113.3L4.30404 111.189Z" fill="#97D700"/>
<path d="M14.8236 121.76C14.4455 121.38 13.8154 121.38 13.4164 121.76C13.0383 122.139 13.0383 122.773 13.4164 123.174L15.5167 125.284C15.7057 125.474 15.9577 125.58 16.2098 125.58C16.4828 125.58 16.7349 125.474 16.9029 125.284C17.2809 124.904 17.2809 124.271 16.9029 123.87L14.8236 121.76Z" fill="#97D700"/>
<path d="M9.93832 108.277C9.39224 108.277 8.95117 108.721 8.95117 109.269V112.266C8.95117 112.815 9.39224 113.258 9.93832 113.258C10.4844 113.258 10.9255 112.815 10.9255 112.266V109.269C10.9255 108.721 10.4844 108.277 9.93832 108.277Z" fill="#97D700"/>
<path d="M9.93832 123.23C9.39224 123.23 8.95117 123.674 8.95117 124.222V127.219C8.95117 127.768 9.39224 128.211 9.93832 128.211C10.4844 128.211 10.9255 127.768 10.9255 127.219V124.222C10.9255 123.674 10.4844 123.23 9.93832 123.23Z" fill="#97D700"/>
<path d="M15.5167 111.191L13.4164 113.302C13.0383 113.682 13.0383 114.315 13.4164 114.716C13.6054 114.906 13.8574 115.011 14.1095 115.011C14.3825 115.011 14.6345 114.906 14.8026 114.716L16.9029 112.605C17.2809 112.225 17.2809 111.592 16.9029 111.191C16.5458 110.811 15.9157 110.811 15.5167 111.191C15.5377 111.191 15.5167 111.191 15.5167 111.191Z" fill="#97D700"/>
<path d="M4.99715 121.76L2.89682 123.87C2.51877 124.25 2.51877 124.883 2.89682 125.284C3.08585 125.474 3.33789 125.58 3.58993 125.58C3.86297 125.58 4.11501 125.474 4.28304 125.284L6.38336 123.174C6.76142 122.794 6.76142 122.161 6.38336 121.76C6.02631 121.38 5.39621 121.38 4.99715 121.76Z" fill="#97D700"/>
<path d="M141.644 9.52386L139.418 8.29974C138.41 7.77211 137.57 6.92789 137.045 5.91483L135.826 3.67766C135.511 3.19223 134.881 3.0656 134.398 3.36108C134.272 3.4455 134.167 3.55103 134.083 3.67766L132.865 5.91483C132.319 6.92789 131.5 7.751 130.492 8.29974L128.265 9.52386C127.95 9.6927 127.74 10.0304 127.74 10.3892C127.74 10.748 127.929 11.0857 128.265 11.2545L130.492 12.4786C131.5 13.0274 132.319 13.8505 132.865 14.8635L134.083 17.1007C134.251 17.4173 134.587 17.6283 134.944 17.6283C135.301 17.6283 135.637 17.4384 135.805 17.1218L137.024 14.8846C137.57 13.8716 138.389 13.0485 139.397 12.4997L141.623 11.2756C141.938 11.1068 142.127 10.7691 142.127 10.4103C142.169 10.0304 141.959 9.6927 141.644 9.52386ZM138.473 10.748C137.129 11.4867 136.037 12.5841 135.301 13.9138L134.965 14.5469L134.629 13.9138C133.894 12.563 132.802 11.4656 131.458 10.748L130.828 10.4103L131.458 10.0726C132.802 9.33391 133.894 8.23643 134.629 6.88568L134.965 6.25252L135.301 6.88568C136.037 8.23643 137.129 9.33391 138.473 10.0515L139.103 10.3892L138.473 10.748Z" fill="#97D700"/>
<path d="M149.1 58.1855H147.126C146.58 58.1855 146.139 58.6288 146.139 59.1775C146.139 59.7262 146.58 60.1695 147.126 60.1695H149.1C149.646 60.1695 150.087 59.7262 150.087 59.1775C150.087 58.6288 149.646 58.1855 149.1 58.1855Z" fill="#97D700"/>
<path d="M159.012 58.1875H157.038C156.492 58.1875 156.051 58.6307 156.051 59.1795C156.051 59.7282 156.492 60.1714 157.038 60.1714H159.012C159.558 60.1714 159.999 59.7282 159.999 59.1795C159.999 58.6307 159.558 58.1875 159.012 58.1875Z" fill="#97D700"/>
<path d="M153.065 52.1523C152.519 52.1523 152.078 52.5956 152.078 53.1443V55.1282C152.078 55.6769 152.519 56.1202 153.065 56.1202C153.611 56.1202 154.052 55.6769 154.052 55.1282V53.1443C154.073 52.5956 153.632 52.1523 153.065 52.1523Z" fill="#97D700"/>
<path d="M153.065 62.1152C152.519 62.1152 152.078 62.5585 152.078 63.1072V65.0911C152.078 65.6398 152.519 66.0831 153.065 66.0831C153.611 66.0831 154.052 65.6398 154.052 65.0911V63.1072C154.073 62.5585 153.611 62.1152 153.065 62.1152Z" fill="#97D700"/>
<path d="M19.2876 28.8203H17.3133C16.7672 28.8203 16.3262 29.2635 16.3262 29.8123C16.3262 30.361 16.7672 30.8042 17.3133 30.8042H19.2876C19.8337 30.8042 20.2748 30.361 20.2748 29.8123C20.2748 29.2635 19.8337 28.8203 19.2876 28.8203Z" fill="#97D700"/>
<path d="M29.1997 28.8203H27.2254C26.6794 28.8203 26.2383 29.2635 26.2383 29.8123C26.2383 30.361 26.6794 30.8042 27.2254 30.8042H29.1997C29.7458 30.8042 30.1869 30.361 30.1869 29.8123C30.1869 29.2635 29.7668 28.8203 29.1997 28.8203Z" fill="#97D700"/>
<path d="M23.2743 22.7656C22.7282 22.7656 22.2871 23.2088 22.2871 23.7576V25.7415C22.2871 26.2902 22.7282 26.7334 23.2743 26.7334C23.8203 26.7334 24.2614 26.2902 24.2614 25.7415V23.7576C24.2614 23.2088 23.8203 22.7656 23.2743 22.7656Z" fill="#97D700"/>
<path d="M23.2743 32.7266C22.7282 32.7266 22.2871 33.1698 22.2871 33.7185V35.7024C22.2871 36.2512 22.7282 36.6944 23.2743 36.6944C23.8203 36.6944 24.2614 36.2512 24.2614 35.7024V33.7185C24.2614 33.1909 23.8203 32.7266 23.2743 32.7266Z" fill="#97D700"/>
<path d="M107.698 7.75977H64.0536C63.5075 7.75977 63.0664 8.20298 63.0664 8.75172C63.0664 9.30046 63.5075 9.74367 64.0536 9.74367H107.698C108.244 9.74367 108.685 9.30046 108.685 8.75172C108.685 8.20298 108.244 7.75977 107.698 7.75977Z" fill="#97D700"/>
<path d="M114.16 147.076H58.6063C58.0602 147.076 57.6191 147.519 57.6191 148.068C57.6191 148.617 58.0602 149.06 58.6063 149.06H114.16C114.706 149.06 115.147 148.617 115.147 148.068C115.147 147.54 114.706 147.076 114.16 147.076Z" fill="#97D700"/>
<path d="M105.233 154.057H78.454C77.9079 154.057 77.4668 154.5 77.4668 155.049C77.4668 155.597 77.9079 156.041 78.454 156.041H105.233C105.779 156.041 106.22 155.597 106.22 155.049C106.22 154.5 105.779 154.057 105.233 154.057Z" fill="#97D700"/>
<path d="M70.504 154.057H52.6512C52.1051 154.057 51.6641 154.5 51.6641 155.049C51.6641 155.597 52.1051 156.041 52.6512 156.041H70.504C71.05 156.041 71.4911 155.597 71.4911 155.049C71.4911 154.5 71.05 154.057 70.504 154.057Z" fill="#97D700"/>
<path d="M87.8508 0.78125H73.9676C73.4215 0.78125 72.9805 1.22446 72.9805 1.7732C72.9805 2.32194 73.4215 2.76516 73.9676 2.76516H87.8508C88.3968 2.76516 88.8379 2.32194 88.8379 1.7732C88.8379 1.22446 88.3968 0.78125 87.8508 0.78125Z" fill="#97D700"/>
<path d="M99.7572 0.78125H93.8133C93.2672 0.78125 92.8262 1.22446 92.8262 1.7732C92.8262 2.32194 93.2672 2.76516 93.8133 2.76516H99.7572C100.303 2.76516 100.744 2.32194 100.744 1.7732C100.744 1.22446 100.303 0.78125 99.7572 0.78125Z" fill="#97D700"/>
<mask id="mask0_3624_27989" style="mask-type:alpha" maskUnits="userSpaceOnUse" x="46" y="44" width="67" height="67">
<rect x="46.6816" y="44.7812" width="66" height="66" fill="#D9D9D9"/>
</mask>
<g mask="url(#mask0_3624_27989)">
<path d="M79.8692 101.971C79.4299 101.971 79.0567 101.817 78.7496 101.51C78.4417 101.202 78.2878 100.829 78.2878 100.389C78.2878 99.95 78.4417 99.5768 78.7496 99.2696C79.0567 98.9618 79.4299 98.8078 79.8692 98.8078C80.3085 98.8078 80.6818 98.9618 80.9889 99.2696C81.2968 99.5768 81.4507 99.95 81.4507 100.389C81.4507 100.829 81.2968 101.202 80.9889 101.51C80.6818 101.817 80.3085 101.971 79.8692 101.971ZM73.7807 84.0477C73.3414 84.0477 72.9682 83.8937 72.661 83.5859C72.3531 83.2787 72.1992 82.9055 72.1992 82.4662C72.1992 82.0269 72.3531 81.6533 72.661 81.3455C72.9682 81.0383 73.3414 80.8848 73.7807 80.8848C74.2375 80.8848 74.6153 81.0383 74.914 81.3455C75.2128 81.6533 75.3621 82.0269 75.3621 82.4662C75.3621 82.9055 75.2128 83.2787 74.914 83.5859C74.6153 83.8937 74.2375 84.0477 73.7807 84.0477ZM73.7807 90.1362C73.3414 90.1362 72.9682 89.9827 72.661 89.6755C72.3531 89.3676 72.1992 88.9941 72.1992 88.5548C72.1992 88.0979 72.3531 87.7201 72.661 87.4214C72.9682 87.1227 73.3414 86.9733 73.7807 86.9733C74.2375 86.9733 74.6153 87.1227 74.914 87.4214C75.2128 87.7201 75.3621 88.0979 75.3621 88.5548C75.3621 88.9941 75.2128 89.3676 74.914 89.6755C74.6153 89.9827 74.2375 90.1362 73.7807 90.1362ZM85.9578 84.0477C85.5009 84.0477 85.1232 83.8937 84.8244 83.5859C84.5257 83.2787 84.3764 82.9055 84.3764 82.4662C84.3764 82.0269 84.5257 81.6533 84.8244 81.3455C85.1232 81.0383 85.5009 80.8848 85.9578 80.8848C86.3971 80.8848 86.7707 81.0383 87.0785 81.3455C87.3857 81.6533 87.5393 82.0269 87.5393 82.4662C87.5393 82.9055 87.3857 83.2787 87.0785 83.5859C86.7707 83.8937 86.3971 84.0477 85.9578 84.0477ZM85.9578 90.1362C85.5009 90.1362 85.1232 89.9827 84.8244 89.6755C84.5257 89.3676 84.3764 88.9941 84.3764 88.5548C84.3764 88.0979 84.5257 87.7201 84.8244 87.4214C85.1232 87.1227 85.5009 86.9733 85.9578 86.9733C86.3971 86.9733 86.7707 87.1227 87.0785 87.4214C87.3857 87.7201 87.5393 88.0979 87.5393 88.5548C87.5393 88.9941 87.3857 89.3676 87.0785 89.6755C86.7707 89.9827 86.3971 90.1362 85.9578 90.1362ZM79.8692 90.1362C79.4299 90.1362 79.0567 89.9827 78.7496 89.6755C78.4417 89.3676 78.2878 88.9941 78.2878 88.5548C78.2878 88.0979 78.4417 87.7201 78.7496 87.4214C79.0567 87.1227 79.4299 86.9733 79.8692 86.9733C80.3085 86.9733 80.6818 87.1227 80.9889 87.4214C81.2968 87.7201 81.4507 88.0979 81.4507 88.5548C81.4507 88.9941 81.2968 89.3676 80.9889 89.6755C80.6818 89.9827 80.3085 90.1362 79.8692 90.1362ZM79.8692 84.0477C79.4299 84.0477 79.0567 83.8937 78.7496 83.5859C78.4417 83.2787 78.2878 82.9055 78.2878 82.4662C78.2878 82.0269 78.4417 81.6533 78.7496 81.3455C79.0567 81.0383 79.4299 80.8848 79.8692 80.8848C80.3085 80.8848 80.6818 81.0383 80.9889 81.3455C81.2968 81.6533 81.4507 82.0269 81.4507 82.4662C81.4507 82.9055 81.2968 83.2787 80.9889 83.5859C80.6818 83.8937 80.3085 84.0477 79.8692 84.0477Z" fill="#034B25"/>
<path d="M67.6504 105.281C66.4129 105.281 65.3587 104.846 64.4879 103.975C63.6171 103.104 63.1817 102.05 63.1817 100.812V54.75C63.1817 53.5125 63.6171 52.4583 64.4879 51.5875C65.3587 50.7167 66.4129 50.2812 67.6504 50.2812H91.7129C92.9504 50.2812 94.0046 50.7167 94.8754 51.5875C95.7462 52.4583 96.1817 53.5125 96.1817 54.75V100.812C96.1817 102.05 95.7462 103.104 94.8754 103.975C94.0046 104.846 92.9504 105.281 91.7129 105.281H67.6504ZM65.9317 95.6562H93.4316V59.9062H65.9317V95.6562ZM65.9317 98.4062V100.812C65.9317 101.317 66.0921 101.729 66.4129 102.05C66.7337 102.371 67.1462 102.531 67.6504 102.531H91.7129C92.2171 102.531 92.6296 102.371 92.9504 102.05C93.2712 101.729 93.4316 101.317 93.4316 100.812V98.4062H65.9317ZM65.9317 57.1562H93.4316V54.75C93.4316 54.2458 93.2712 53.8333 92.9504 53.5125C92.6296 53.1917 92.2171 53.0312 91.7129 53.0312H67.6504C67.1462 53.0312 66.7337 53.1917 66.4129 53.5125C66.0921 53.8333 65.9317 54.2458 65.9317 54.75V57.1562Z" fill="#034B25"/>
</g>
<path d="M133.227 91.5123C140.438 62.7137 123.05 33.494 94.3908 26.2483C65.7316 19.0026 36.6533 36.4747 29.4427 65.2734C22.2321 94.072 39.6196 123.292 68.2789 130.537C96.9381 137.783 126.016 120.311 133.227 91.5123Z" stroke="#034B25" stroke-width="3.5" stroke-miterlimit="10" stroke-linecap="round" stroke-linejoin="round"/>
</svg>
