<svg width="17" height="19" viewBox="0 0 17 19" fill="none" xmlns="http://www.w3.org/2000/svg">
<path d="M8.53125 0.454102C10.9922 0.454102 13.0312 2.49316 13.0312 4.9541C13.0312 6.21973 13.5938 7.37988 14.5781 8.11816L14.7539 8.22363C15.0703 8.46973 15.2812 8.85645 15.2812 9.27832C15.2812 10.0166 14.6836 10.5791 13.9453 10.5791H11.9062C11.5898 10.5791 11.3438 10.333 11.3438 10.0166C11.3438 9.73535 11.5898 9.4541 11.9062 9.4541H13.9453C14.0508 9.4541 14.1562 9.38379 14.1562 9.27832C14.1562 9.20801 14.1211 9.17285 14.0508 9.1377L13.9102 9.03223C13.3477 8.61035 12.8906 8.08301 12.5742 7.48535C11.8359 8.99707 10.2891 10.0166 8.53125 10.0166C6.73828 10.0166 5.19141 8.99707 4.45312 7.48535C4.13672 8.08301 3.67969 8.61035 3.11719 9.03223L2.97656 9.1377C2.90625 9.17285 2.90625 9.20801 2.90625 9.27832C2.90625 9.38379 2.97656 9.4541 3.08203 9.4541H5.15625C5.4375 9.4541 5.71875 9.73535 5.71875 10.0166C5.71875 10.333 5.4375 10.5791 5.15625 10.5791H3.08203C2.34375 10.5791 1.78125 10.0166 1.78125 9.27832C1.78125 8.85645 1.95703 8.46973 2.27344 8.22363L2.44922 8.11816C3.43359 7.37988 4.03125 6.21973 4.03125 4.9541C4.03125 2.49316 6.03516 0.454102 8.53125 0.454102ZM11.8359 4.3916H10.7812C10.2539 4.3916 9.76172 4.21582 9.375 3.8291L9.16406 3.61816C8.49609 4.46191 7.44141 4.9541 6.35156 4.9541H5.15625V5.5166C5.15625 7.37988 6.63281 8.8916 8.53125 8.8916C10.3945 8.8916 11.9062 7.37988 11.9062 5.5166V4.9541C11.9062 4.77832 11.8711 4.60254 11.8359 4.3916ZM9.48047 2.31738L10.1836 3.02051C10.3594 3.19629 10.5703 3.2666 10.7812 3.2666H11.4492C10.8516 2.28223 9.76172 1.5791 8.53125 1.5791C7.05469 1.5791 5.78906 2.52832 5.33203 3.8291H6.35156C7.30078 3.8291 8.14453 3.30176 8.56641 2.49316C8.60156 2.42285 8.63672 2.3877 8.67188 2.31738C8.88281 2.10645 9.26953 2.10645 9.48047 2.31738ZM0.65625 17.4697C0.65625 14.3057 3.22266 11.7041 6.38672 11.7041H10.6406C13.8047 11.7041 16.4062 14.3057 16.4062 17.4697C16.4062 18.0322 15.9492 18.4541 15.3867 18.4541H1.64062C1.07812 18.4541 0.65625 18.0322 0.65625 17.4697ZM15.2461 17.3291C15.2109 14.833 13.1367 12.8291 10.6406 12.8291H6.38672C3.89062 12.8291 1.81641 14.833 1.78125 17.3291H15.2461Z" fill="#034B25"/>
</svg>
