<svg width="160" height="157" viewBox="0 0 160 157" fill="none" xmlns="http://www.w3.org/2000/svg">
<path d="M3.96961 117.314H0.98715C0.441066 117.314 0 117.758 0 118.306C0 118.855 0.441066 119.298 0.98715 119.298H3.96961C4.51569 119.298 4.95676 118.855 4.95676 118.306C4.95676 117.758 4.51569 117.314 3.96961 117.314Z" fill="#97D700"/>
<path d="M18.8485 117.314H15.8661C15.32 117.314 14.8789 117.758 14.8789 118.306C14.8789 118.855 15.32 119.298 15.8661 119.298H18.8485C19.3946 119.298 19.8357 118.855 19.8357 118.306C19.8357 117.758 19.3946 117.314 18.8485 117.314Z" fill="#97D700"/>
<path d="M4.30404 111.189C3.92598 110.809 3.29589 110.809 2.89682 111.189C2.51877 111.569 2.51877 112.202 2.89682 112.603L4.99715 114.714C5.18618 114.904 5.43822 115.009 5.69025 115.009C5.9633 115.009 6.21533 114.904 6.38336 114.714C6.76142 114.334 6.76142 113.701 6.38336 113.3L4.30404 111.189Z" fill="#97D700"/>
<path d="M14.8236 121.76C14.4455 121.38 13.8154 121.38 13.4164 121.76C13.0383 122.139 13.0383 122.773 13.4164 123.174L15.5167 125.284C15.7057 125.474 15.9577 125.58 16.2098 125.58C16.4828 125.58 16.7349 125.474 16.9029 125.284C17.2809 124.904 17.2809 124.271 16.9029 123.87L14.8236 121.76Z" fill="#97D700"/>
<path d="M9.94028 108.277C9.39419 108.277 8.95312 108.721 8.95312 109.269V112.266C8.95312 112.815 9.39419 113.258 9.94028 113.258C10.4864 113.258 10.9274 112.815 10.9274 112.266V109.269C10.9274 108.721 10.4864 108.277 9.94028 108.277Z" fill="#97D700"/>
<path d="M9.94028 123.23C9.39419 123.23 8.95312 123.674 8.95312 124.222V127.219C8.95312 127.768 9.39419 128.211 9.94028 128.211C10.4864 128.211 10.9274 127.768 10.9274 127.219V124.222C10.9274 123.674 10.4864 123.23 9.94028 123.23Z" fill="#97D700"/>
<path d="M15.5167 111.191L13.4164 113.302C13.0383 113.682 13.0383 114.315 13.4164 114.716C13.6054 114.906 13.8574 115.011 14.1095 115.011C14.3825 115.011 14.6345 114.906 14.8026 114.716L16.9029 112.605C17.2809 112.225 17.2809 111.592 16.9029 111.191C16.5458 110.811 15.9157 110.811 15.5167 111.191C15.5377 111.191 15.5167 111.191 15.5167 111.191Z" fill="#97D700"/>
<path d="M4.99715 121.76L2.89682 123.87C2.51877 124.25 2.51877 124.883 2.89682 125.284C3.08585 125.474 3.33789 125.58 3.58993 125.58C3.86297 125.58 4.11501 125.474 4.28304 125.284L6.38336 123.174C6.76142 122.794 6.76142 122.161 6.38336 121.76C6.02631 121.38 5.39621 121.38 4.99715 121.76Z" fill="#97D700"/>
<path d="M141.642 9.52386L139.416 8.29974C138.408 7.77211 137.568 6.92789 137.043 5.91483L135.825 3.67766C135.509 3.19223 134.879 3.0656 134.396 3.36108C134.27 3.4455 134.165 3.55103 134.081 3.67766L132.863 5.91483C132.317 6.92789 131.498 7.751 130.49 8.29974L128.263 9.52386C127.948 9.6927 127.738 10.0304 127.738 10.3892C127.738 10.748 127.927 11.0857 128.263 11.2545L130.49 12.4786C131.498 13.0274 132.317 13.8505 132.863 14.8635L134.081 17.1007C134.249 17.4173 134.585 17.6283 134.942 17.6283C135.299 17.6283 135.635 17.4384 135.804 17.1218L137.022 14.8846C137.568 13.8716 138.387 13.0485 139.395 12.4997L141.621 11.2756C141.936 11.1068 142.125 10.7691 142.125 10.4103C142.167 10.0304 141.957 9.6927 141.642 9.52386ZM138.471 10.748C137.127 11.4867 136.035 12.5841 135.299 13.9138L134.963 14.5469L134.627 13.9138C133.892 12.563 132.8 11.4656 131.456 10.748L130.826 10.4103L131.456 10.0726C132.8 9.33391 133.892 8.23643 134.627 6.88568L134.963 6.25252L135.299 6.88568C136.035 8.23643 137.127 9.33391 138.471 10.0515L139.101 10.3892L138.471 10.748Z" fill="#97D700"/>
<path d="M149.102 58.1855H147.128C146.582 58.1855 146.141 58.6288 146.141 59.1775C146.141 59.7262 146.582 60.1695 147.128 60.1695H149.102C149.648 60.1695 150.089 59.7262 150.089 59.1775C150.089 58.6288 149.648 58.1855 149.102 58.1855Z" fill="#97D700"/>
<path d="M159.016 58.1875H157.042C156.496 58.1875 156.055 58.6307 156.055 59.1795C156.055 59.7282 156.496 60.1714 157.042 60.1714H159.016C159.562 60.1714 160.003 59.7282 160.003 59.1795C160.003 58.6307 159.562 58.1875 159.016 58.1875Z" fill="#97D700"/>
<path d="M153.069 52.1523C152.523 52.1523 152.082 52.5956 152.082 53.1443V55.1282C152.082 55.6769 152.523 56.1202 153.069 56.1202C153.615 56.1202 154.056 55.6769 154.056 55.1282V53.1443C154.077 52.5956 153.636 52.1523 153.069 52.1523Z" fill="#97D700"/>
<path d="M153.069 62.1152C152.523 62.1152 152.082 62.5585 152.082 63.1072V65.0911C152.082 65.6398 152.523 66.0831 153.069 66.0831C153.615 66.0831 154.056 65.6398 154.056 65.0911V63.1072C154.077 62.5585 153.615 62.1152 153.069 62.1152Z" fill="#97D700"/>
<path d="M19.2896 28.8203H17.3153C16.7692 28.8203 16.3281 29.2635 16.3281 29.8123C16.3281 30.361 16.7692 30.8042 17.3153 30.8042H19.2896C19.8357 30.8042 20.2767 30.361 20.2767 29.8123C20.2767 29.2635 19.8357 28.8203 19.2896 28.8203Z" fill="#97D700"/>
<path d="M29.2036 28.8203H27.2293C26.6833 28.8203 26.2422 29.2635 26.2422 29.8123C26.2422 30.361 26.6833 30.8042 27.2293 30.8042H29.2036C29.7497 30.8042 30.1908 30.361 30.1908 29.8123C30.1908 29.2635 29.7707 28.8203 29.2036 28.8203Z" fill="#97D700"/>
<path d="M23.2762 22.7656C22.7301 22.7656 22.2891 23.2088 22.2891 23.7576V25.7415C22.2891 26.2902 22.7301 26.7334 23.2762 26.7334C23.8223 26.7334 24.2634 26.2902 24.2634 25.7415V23.7576C24.2634 23.2088 23.8223 22.7656 23.2762 22.7656Z" fill="#97D700"/>
<path d="M23.2762 32.7266C22.7301 32.7266 22.2891 33.1698 22.2891 33.7185V35.7024C22.2891 36.2512 22.7301 36.6944 23.2762 36.6944C23.8223 36.6944 24.2634 36.2512 24.2634 35.7024V33.7185C24.2634 33.1909 23.8223 32.7266 23.2762 32.7266Z" fill="#97D700"/>
<path d="M107.698 7.75977H64.0536C63.5075 7.75977 63.0664 8.20298 63.0664 8.75172C63.0664 9.30046 63.5075 9.74367 64.0536 9.74367H107.698C108.244 9.74367 108.685 9.30046 108.685 8.75172C108.685 8.20298 108.244 7.75977 107.698 7.75977Z" fill="#97D700"/>
<path d="M114.162 147.076H58.6082C58.0621 147.076 57.6211 147.519 57.6211 148.068C57.6211 148.617 58.0621 149.06 58.6082 149.06H114.162C114.708 149.06 115.149 148.617 115.149 148.068C115.149 147.54 114.708 147.076 114.162 147.076Z" fill="#97D700"/>
<path d="M105.235 154.057H78.4559C77.9098 154.057 77.4688 154.5 77.4688 155.049C77.4688 155.597 77.9098 156.041 78.4559 156.041H105.235C105.781 156.041 106.222 155.597 106.222 155.049C106.222 154.5 105.781 154.057 105.235 154.057Z" fill="#97D700"/>
<path d="M70.504 154.057H52.6512C52.1051 154.057 51.6641 154.5 51.6641 155.049C51.6641 155.597 52.1051 156.041 52.6512 156.041H70.504C71.05 156.041 71.4911 155.597 71.4911 155.049C71.4911 154.5 71.05 154.057 70.504 154.057Z" fill="#97D700"/>
<path d="M87.8508 0.78125H73.9676C73.4215 0.78125 72.9805 1.22446 72.9805 1.7732C72.9805 2.32194 73.4215 2.76516 73.9676 2.76516H87.8508C88.3968 2.76516 88.8379 2.32194 88.8379 1.7732C88.8379 1.22446 88.3968 0.78125 87.8508 0.78125Z" fill="#97D700"/>
<path d="M99.7592 0.78125H93.8153C93.2692 0.78125 92.8281 1.22446 92.8281 1.7732C92.8281 2.32194 93.2692 2.76516 93.8153 2.76516H99.7592C100.305 2.76516 100.746 2.32194 100.746 1.7732C100.746 1.22446 100.305 0.78125 99.7592 0.78125Z" fill="#97D700"/>
<mask id="mask0_2890_15400" style="mask-type:alpha" maskUnits="userSpaceOnUse" x="46" y="42" width="70" height="71">
<rect x="46.0117" y="42.2324" width="69.8069" height="70.1465" fill="#D9D9D9"/>
</mask>
<g mask="url(#mask0_2890_15400)">
<path d="M80.2085 77.4864L54.6898 60.5476V94.4252C54.6898 95.0167 54.8759 95.5007 55.2481 95.8771C55.6202 96.2535 56.0987 96.4417 56.6835 96.4417H84.9932V99.6681H56.6835C55.1949 99.6681 53.9594 99.1713 52.9769 98.1775C51.9923 97.1816 51.5 95.9308 51.5 94.4252V59.741C51.5 58.2353 51.9923 56.9856 52.9769 55.9919C53.9594 54.996 55.1949 54.498 56.6835 54.498H103.733C105.222 54.498 106.459 54.996 107.443 55.9919C108.426 56.9856 108.917 58.2353 108.917 59.741V81.9227H105.727V60.5476L80.2085 77.4864ZM80.2085 73.8567L104.77 57.7245H55.6468L80.2085 73.8567ZM101.341 108.702L99.1082 106.444L105.647 99.6681H90.1767V96.4417H105.727L99.0285 89.6662L101.341 87.4077L111.788 98.0549L101.341 108.702ZM54.6898 60.5476V98.6195V81.9227V82.4874V57.7245V60.5476Z" fill="#034B25"/>
</g>
<path d="M133.227 91.5123C140.438 62.7137 123.05 33.494 94.3908 26.2483C65.7316 19.0026 36.6533 36.4747 29.4427 65.2734C22.2321 94.072 39.6196 123.292 68.2789 130.537C96.9381 137.783 126.016 120.311 133.227 91.5123Z" stroke="#034B25" stroke-width="3.5" stroke-miterlimit="10" stroke-linecap="round" stroke-linejoin="round"/>
</svg>
