<svg width="11" height="10" viewBox="0 0 11 10" fill="none" xmlns="http://www.w3.org/2000/svg">
<path d="M9.95312 8.64258C10.2168 8.93555 10.2168 9.375 9.95312 9.63867C9.66016 9.93164 9.2207 9.93164 8.95703 9.63867L5.5 6.15234L2.01367 9.63867C1.7207 9.93164 1.28125 9.93164 1.01758 9.63867C0.724609 9.375 0.724609 8.93555 1.01758 8.64258L4.50391 5.15625L1.01758 1.66992C0.724609 1.37695 0.724609 0.9375 1.01758 0.673828C1.28125 0.380859 1.7207 0.380859 1.98438 0.673828L5.5 4.18945L8.98633 0.703125C9.25 0.410156 9.68945 0.410156 9.95312 0.703125C10.2461 0.966797 10.2461 1.40625 9.95312 1.69922L6.4668 5.15625L9.95312 8.64258Z" fill="#DA4343"/>
</svg>
