<svg width="22" height="22" viewBox="0 0 22 22" fill="none" xmlns="http://www.w3.org/2000/svg">
<path d="M20.6719 19.7231C21.082 20.1333 21.082 20.7485 20.6719 21.1177C20.5078 21.3228 20.2617 21.4048 20.0156 21.4048C19.7285 21.4048 19.4824 21.3228 19.2773 21.1177L13.7812 15.6216C12.3047 16.811 10.459 17.4673 8.49023 17.4673C3.81445 17.4673 0 13.6528 0 8.93604C0 4.26025 3.77344 0.404785 8.49023 0.404785C13.166 0.404785 17.0215 4.26025 17.0215 8.93604C17.0215 10.9458 16.3652 12.7915 15.1758 14.2271L20.6719 19.7231ZM1.96875 8.93604C1.96875 12.5864 4.88086 15.4985 8.53125 15.4985C12.1406 15.4985 15.0938 12.5864 15.0938 8.93604C15.0938 5.32666 12.1406 2.37354 8.53125 2.37354C4.88086 2.37354 1.96875 5.32666 1.96875 8.93604Z" fill="#034B25"/>
</svg>
