<svg width="13" height="12" viewBox="0 0 13 12" fill="none" xmlns="http://www.w3.org/2000/svg">
<path d="M12.6191 9.19727L10.1816 11.6348C9.92773 11.8887 9.54688 11.8887 9.31836 11.6348L6.88086 9.19727C6.62695 8.96875 6.62695 8.58789 6.88086 8.35938C7.10938 8.10547 7.49023 8.10547 7.74414 8.35938L9.14062 9.75586V1.04688C9.14062 0.716797 9.39453 0.4375 9.75 0.4375C10.0801 0.4375 10.3594 0.716797 10.3594 1.04688V9.75586L11.7559 8.35938C11.9844 8.10547 12.3652 8.10547 12.6191 8.35938C12.8477 8.58789 12.8477 8.96875 12.6191 9.19727ZM3.68164 0.615234L6.09375 3.05273C6.34766 3.30664 6.34766 3.6875 6.09375 3.91602C5.86523 4.16992 5.48438 4.16992 5.23047 3.91602L3.83398 2.51953V11.2031C3.83398 11.5586 3.58008 11.8125 3.22461 11.8125C2.89453 11.8125 2.61523 11.5586 2.61523 11.2031V2.51953L1.21875 3.91602C0.990234 4.16992 0.609375 4.16992 0.380859 3.91602C0.126953 3.6875 0.126953 3.30664 0.380859 3.05273L2.81836 0.615234C3.04688 0.386719 3.42773 0.386719 3.68164 0.615234Z" fill="white"/>
</svg>
