<svg width="161" height="156" viewBox="0 0 161 156" fill="none" xmlns="http://www.w3.org/2000/svg">
<path d="M4.69031 116.498H1.70785C1.16177 116.498 0.720703 116.939 0.720703 117.485C0.720703 118.031 1.16177 118.472 1.70785 118.472H4.69031C5.2364 118.472 5.67746 118.031 5.67746 117.485C5.67746 116.939 5.2364 116.498 4.69031 116.498Z" fill="#97D700"/>
<path d="M19.5692 116.498H16.5868C16.0407 116.498 15.5996 116.939 15.5996 117.485C15.5996 118.031 16.0407 118.472 16.5868 118.472H19.5692C20.1153 118.472 20.5564 118.031 20.5564 117.485C20.5564 116.939 20.1153 116.498 19.5692 116.498Z" fill="#97D700"/>
<path d="M5.02474 110.403C4.64669 110.025 4.01659 110.025 3.61753 110.403C3.23947 110.781 3.23947 111.411 3.61753 111.81L5.71785 113.91C5.90688 114.099 6.15892 114.204 6.41096 114.204C6.684 114.204 6.93604 114.099 7.10406 113.91C7.48212 113.532 7.48212 112.902 7.10406 112.503L5.02474 110.403Z" fill="#97D700"/>
<path d="M15.5443 120.92C15.1662 120.542 14.5361 120.542 14.1371 120.92C13.759 121.298 13.759 121.928 14.1371 122.327L16.2374 124.428C16.4264 124.617 16.6784 124.722 16.9305 124.722C17.2035 124.722 17.4556 124.617 17.6236 124.428C18.0017 124.05 18.0017 123.42 17.6236 123.021L15.5443 120.92Z" fill="#97D700"/>
<path d="M10.659 107.504C10.1129 107.504 9.67188 107.945 9.67188 108.491V111.474C9.67188 112.02 10.1129 112.461 10.659 112.461C11.2051 112.461 11.6462 112.02 11.6462 111.474V108.491C11.6462 107.945 11.2051 107.504 10.659 107.504Z" fill="#97D700"/>
<path d="M10.659 122.385C10.1129 122.385 9.67188 122.826 9.67188 123.372V126.355C9.67188 126.901 10.1129 127.342 10.659 127.342C11.2051 127.342 11.6462 126.901 11.6462 126.355V123.372C11.6462 122.826 11.2051 122.385 10.659 122.385Z" fill="#97D700"/>
<path d="M16.2374 110.403L14.1371 112.503C13.759 112.881 13.759 113.511 14.1371 113.91C14.3261 114.099 14.5781 114.204 14.8302 114.204C15.1032 114.204 15.3552 114.099 15.5233 113.91L17.6236 111.81C18.0017 111.432 18.0017 110.802 17.6236 110.403C17.2665 110.025 16.6364 110.025 16.2374 110.403C16.2584 110.403 16.2374 110.403 16.2374 110.403Z" fill="#97D700"/>
<path d="M5.71785 120.92L3.61753 123.021C3.23947 123.399 3.23947 124.029 3.61753 124.428C3.80656 124.617 4.0586 124.722 4.31063 124.722C4.58368 124.722 4.83571 124.617 5.00374 124.428L7.10406 122.327C7.48212 121.949 7.48212 121.319 7.10406 120.92C6.74701 120.542 6.11691 120.542 5.71785 120.92Z" fill="#97D700"/>
<path d="M142.365 9.22665L140.139 8.00847C139.131 7.48339 138.29 6.64326 137.765 5.6351L136.547 3.40876C136.232 2.92569 135.602 2.79967 135.119 3.09371C134.993 3.17772 134.888 3.28274 134.804 3.40876L133.586 5.6351C133.04 6.64326 132.221 7.46238 131.212 8.00847L128.986 9.22665C128.671 9.39468 128.461 9.73073 128.461 10.0878C128.461 10.4448 128.65 10.7809 128.986 10.9489L131.212 12.1671C132.221 12.7132 133.04 13.5323 133.586 14.5405L134.804 16.7668C134.972 17.0819 135.308 17.2919 135.665 17.2919C136.022 17.2919 136.358 17.1029 136.526 16.7878L137.744 14.5615C138.29 13.5533 139.11 12.7342 140.118 12.1881L142.344 10.9699C142.659 10.8019 142.848 10.4658 142.848 10.1088C142.89 9.73073 142.68 9.39468 142.365 9.22665ZM139.194 10.4448C137.849 11.18 136.757 12.2721 136.022 13.5953L135.686 14.2254L135.35 13.5953C134.615 12.2511 133.523 11.1589 132.179 10.4448L131.548 10.1088L132.179 9.77274C133.523 9.03762 134.615 7.94546 135.35 6.60125L135.686 5.97115L136.022 6.60125C136.757 7.94546 137.849 9.03762 139.194 9.75173L139.824 10.0878L139.194 10.4448Z" fill="#97D700"/>
<path d="M149.821 57.6548H147.847C147.3 57.6548 146.859 58.0959 146.859 58.6419C146.859 59.188 147.3 59.6291 147.847 59.6291H149.821C150.367 59.6291 150.808 59.188 150.808 58.6419C150.808 58.0959 150.367 57.6548 149.821 57.6548Z" fill="#97D700"/>
<path d="M159.733 57.6553H157.759C157.213 57.6553 156.771 58.0963 156.771 58.6424C156.771 59.1885 157.213 59.6296 157.759 59.6296H159.733C160.279 59.6296 160.72 59.1885 160.72 58.6424C160.72 58.0963 160.279 57.6553 159.733 57.6553Z" fill="#97D700"/>
<path d="M153.786 51.6499C153.24 51.6499 152.799 52.091 152.799 52.637V54.6114C152.799 55.1574 153.24 55.5985 153.786 55.5985C154.332 55.5985 154.773 55.1574 154.773 54.6114V52.637C154.794 52.091 154.353 51.6499 153.786 51.6499Z" fill="#97D700"/>
<path d="M153.786 61.564C153.24 61.564 152.799 62.005 152.799 62.5511V64.5254C152.799 65.0715 153.24 65.5126 153.786 65.5126C154.332 65.5126 154.773 65.0715 154.773 64.5254V62.5511C154.794 62.005 154.332 61.564 153.786 61.564Z" fill="#97D700"/>
<path d="M20.0083 28.4302H18.034C17.4879 28.4302 17.0469 28.8712 17.0469 29.4173C17.0469 29.9634 17.4879 30.4045 18.034 30.4045H20.0083C20.5544 30.4045 20.9955 29.9634 20.9955 29.4173C20.9955 28.8712 20.5544 28.4302 20.0083 28.4302Z" fill="#97D700"/>
<path d="M29.9204 28.4302H27.9461C27.4001 28.4302 26.959 28.8712 26.959 29.4173C26.959 29.9634 27.4001 30.4045 27.9461 30.4045H29.9204C30.4665 30.4045 30.9076 29.9634 30.9076 29.4173C30.9076 28.8712 30.4875 28.4302 29.9204 28.4302Z" fill="#97D700"/>
<path d="M23.995 22.4048C23.4489 22.4048 23.0078 22.8459 23.0078 23.3919V25.3662C23.0078 25.9123 23.4489 26.3534 23.995 26.3534C24.5411 26.3534 24.9821 25.9123 24.9821 25.3662V23.3919C24.9821 22.8459 24.5411 22.4048 23.995 22.4048Z" fill="#97D700"/>
<path d="M23.995 32.3184C23.4489 32.3184 23.0078 32.7594 23.0078 33.3055V35.2798C23.0078 35.8259 23.4489 36.267 23.995 36.267C24.5411 36.267 24.9821 35.8259 24.9821 35.2798V33.3055C24.9821 32.7804 24.5411 32.3184 23.995 32.3184Z" fill="#97D700"/>
<path d="M108.419 7.47314H64.7743C64.2282 7.47314 63.7871 7.91421 63.7871 8.4603C63.7871 9.00638 64.2282 9.44745 64.7743 9.44745H108.419C108.965 9.44745 109.406 9.00638 109.406 8.4603C109.406 7.91421 108.965 7.47314 108.419 7.47314Z" fill="#97D700"/>
<path d="M114.881 146.115H59.327C58.7809 146.115 58.3398 146.556 58.3398 147.102C58.3398 147.648 58.7809 148.089 59.327 148.089H114.881C115.427 148.089 115.868 147.648 115.868 147.102C115.868 146.577 115.427 146.115 114.881 146.115Z" fill="#97D700"/>
<path d="M105.954 153.061H79.1747C78.6286 153.061 78.1875 153.502 78.1875 154.048C78.1875 154.594 78.6286 155.035 79.1747 155.035H105.954C106.5 155.035 106.941 154.594 106.941 154.048C106.941 153.502 106.5 153.061 105.954 153.061Z" fill="#97D700"/>
<path d="M71.2247 153.061H53.3719C52.8258 153.061 52.3848 153.502 52.3848 154.048C52.3848 154.594 52.8258 155.035 53.3719 155.035H71.2247C71.7707 155.035 72.2118 154.594 72.2118 154.048C72.2118 153.502 71.7707 153.061 71.2247 153.061Z" fill="#97D700"/>
<path d="M88.5715 0.527344H74.6883C74.1422 0.527344 73.7012 0.96841 73.7012 1.51449C73.7012 2.06058 74.1422 2.50165 74.6883 2.50165H88.5715C89.1175 2.50165 89.5586 2.06058 89.5586 1.51449C89.5586 0.96841 89.1175 0.527344 88.5715 0.527344Z" fill="#97D700"/>
<path d="M100.478 0.527344H94.534C93.9879 0.527344 93.5469 0.96841 93.5469 1.51449C93.5469 2.06058 93.9879 2.50165 94.534 2.50165H100.478C101.024 2.50165 101.465 2.06058 101.465 1.51449C101.465 0.96841 101.024 0.527344 100.478 0.527344Z" fill="#97D700"/>
<path d="M134.661 90.6358C141.871 61.9766 124.484 32.8983 95.8244 25.6877C67.1652 18.4771 38.0869 35.8646 30.8763 64.5239C23.6657 93.1831 41.0532 122.261 69.7125 129.472C98.3717 136.683 127.45 119.295 134.661 90.6358Z" stroke="#034B25" stroke-width="3.5" stroke-miterlimit="10" stroke-linecap="round" stroke-linejoin="round"/>
<path d="M83.2654 51.6831C97.8141 51.6831 109.627 63.4955 109.627 78.0442C109.627 92.5929 97.8141 104.405 83.2654 104.405C68.7167 104.405 56.9043 92.5929 56.9043 78.0442C56.9043 63.4955 68.7167 51.6831 83.2654 51.6831Z" fill="#97D700"/>
<path d="M71.584 77.5114L80.7069 85.5725L96.7637 70.5166" stroke="#FFFEFF" stroke-width="2.91009" stroke-linecap="round" stroke-linejoin="round"/>
</svg>
