<svg width="15" height="13" viewBox="0 0 15 13" fill="none" xmlns="http://www.w3.org/2000/svg">
<path d="M7.5 0.40625C7.88281 0.40625 8.23828 0.625 8.42969 0.953125L14.3359 11.0156C14.5273 11.3711 14.5273 11.7812 14.3359 12.1094C14.1445 12.4648 13.7891 12.6562 13.4062 12.6562H1.59375C1.18359 12.6562 0.828125 12.4648 0.636719 12.1094C0.445312 11.7812 0.445312 11.3711 0.636719 11.0156L6.54297 0.953125C6.73438 0.625 7.08984 0.40625 7.5 0.40625ZM7.5 3.90625C7.11719 3.90625 6.84375 4.20703 6.84375 4.5625V7.625C6.84375 8.00781 7.11719 8.28125 7.5 8.28125C7.85547 8.28125 8.15625 8.00781 8.15625 7.625V4.5625C8.15625 4.20703 7.85547 3.90625 7.5 3.90625ZM8.375 10.0312C8.375 9.56641 7.96484 9.15625 7.5 9.15625C7.00781 9.15625 6.625 9.56641 6.625 10.0312C6.625 10.5234 7.00781 10.9062 7.5 10.9062C7.96484 10.9062 8.375 10.5234 8.375 10.0312Z" fill="#DA4343"/>
</svg>
