<svg width="21" height="25" viewBox="0 0 21 25" fill="none" xmlns="http://www.w3.org/2000/svg">
<path d="M9.98674 23.9657C14.95 23.9657 18.9735 19.9422 18.9735 14.9789C18.9735 10.0157 14.95 5.99219 9.98674 5.99219C5.0235 5.99219 1 10.0157 1 14.9789C1 19.9422 5.0235 23.9657 9.98674 23.9657Z" stroke="#034B25" stroke-width="1.5" stroke-miterlimit="10" stroke-linecap="round" stroke-linejoin="round"/>
<path d="M8.70441 1.49902H11.2721C11.6572 1.49902 11.914 1.75579 11.914 2.14093V3.42475C11.914 3.8099 11.6572 4.06666 11.2721 4.06666H8.70441C8.31926 4.06666 8.0625 3.8099 8.0625 3.42475V2.14093C8.0625 1.75579 8.31926 1.49902 8.70441 1.49902Z" stroke="#034B25" stroke-width="1.5" stroke-miterlimit="10" stroke-linecap="round" stroke-linejoin="round"/>
<path d="M9.98438 4.06641V5.99213" stroke="#034B25" stroke-width="1.5" stroke-miterlimit="10" stroke-linecap="round" stroke-linejoin="round"/>
<path d="M17.2422 4.96484L20.0024 7.72506" stroke="#034B25" stroke-width="1.5" stroke-miterlimit="10" stroke-linecap="round" stroke-linejoin="round"/>
<path d="M18.5904 6.37793L16.3438 8.62462" stroke="#034B25" stroke-width="1.5" stroke-miterlimit="10" stroke-linecap="round" stroke-linejoin="round"/>
<path d="M9.98438 14.9786V10.2227" stroke="#034B25" stroke-width="1.5" stroke-miterlimit="10" stroke-linecap="round" stroke-linejoin="round"/>
<path d="M10.5208 14.9791C10.5208 15.274 10.2818 15.513 9.98695 15.513C9.69212 15.513 9.45312 15.274 9.45312 14.9791C9.45312 14.6843 9.69212 14.4453 9.98695 14.4453C10.2818 14.4453 10.5208 14.6843 10.5208 14.9791Z" stroke="#034B25" stroke-width="1.5" stroke-linecap="round"/>
</svg>
